<svg width="237" height="124" viewBox="0 0 237 124" fill="none" xmlns="http://www.w3.org/2000/svg">
<g clip-path="url(#clip0_1_4578)">
<path d="M115.567 17.5607C115.211 17.5607 114.855 17.2024 114.855 16.844V1.61276C114.855 1.25438 115.211 0.895996 115.567 0.895996C115.922 0.895996 116.278 1.25438 116.278 1.61276V16.6648C116.278 17.2024 115.922 17.5607 115.567 17.5607Z" fill="black" stroke="#0C0B0E" stroke-miterlimit="10"/>
<path d="M97.964 19.5319C97.6084 19.5319 97.2529 19.3527 97.2529 18.8152L94.5859 3.94234C94.5859 3.58396 94.7637 3.04639 95.2971 3.04639C95.6527 3.04639 96.1861 3.22558 96.1861 3.76315L98.853 18.636C98.6752 18.9944 98.4974 19.5319 97.964 19.5319Z" fill="black" stroke="#0C0B0E" stroke-miterlimit="10"/>
<path d="M80.8968 24.7283C80.5412 24.7283 80.3634 24.5491 80.1856 24.1907L75.0296 10.0346C74.8518 9.67624 75.0296 9.13866 75.5629 8.95947C75.9185 8.95947 76.4519 9.13866 76.4519 9.49705L81.608 23.6531C81.7858 24.0115 81.608 24.5491 81.0746 24.7283C81.0746 24.7283 81.0746 24.7283 80.8968 24.7283Z" fill="black" stroke="#0C0B0E" stroke-miterlimit="10"/>
<path d="M65.0724 32.7918C64.7169 32.7918 64.5391 32.6126 64.3613 32.4334L56.8939 19.3525C56.7161 18.9941 56.8939 18.4565 57.2495 18.2773C57.6051 18.0981 58.1385 18.2773 58.3163 18.6357L65.7836 31.7166C65.9614 32.075 65.7836 32.6126 65.428 32.7918C65.2502 32.6126 65.0724 32.7918 65.0724 32.7918Z" fill="black" stroke="#0C0B0E" stroke-miterlimit="10"/>
<path d="M50.8496 43.3642C50.6718 43.3642 50.494 43.185 50.3162 43.0058L40.7153 31.5376C40.3597 31.1792 40.5375 30.6416 40.8931 30.4624C41.2487 30.1041 41.7821 30.2832 41.9599 30.6416L51.5608 42.1098C51.9164 42.4682 51.7386 43.0058 51.383 43.185C51.0274 43.3642 51.0274 43.3642 50.8496 43.3642Z" fill="black" stroke="#0C0B0E" stroke-miterlimit="10"/>
<path d="M38.5818 56.4453C38.404 56.4453 38.2262 56.4453 38.0484 56.2661L26.6696 46.5898C26.314 46.2314 26.314 45.873 26.4918 45.5147C26.8474 45.1563 27.203 45.1563 27.5586 45.3355L38.9374 55.0118C39.293 55.3702 39.293 55.7285 39.1152 56.0869C38.9374 56.2661 38.7596 56.4453 38.5818 56.4453Z" fill="black" stroke="#0C0B0E" stroke-miterlimit="10"/>
<path d="M28.8029 71.3179C28.6251 71.3179 28.6251 71.3179 28.4473 71.1387L15.4683 63.6127C15.1127 63.4335 14.9349 62.8959 15.1127 62.5376C15.2905 62.1792 15.8239 62 16.1795 62.1792L29.1585 69.7052C29.5141 69.8844 29.6919 70.422 29.5141 70.7803C29.3363 71.3179 28.9807 71.3179 28.8029 71.3179Z" fill="black" stroke="#0C0B0E" stroke-miterlimit="10"/>
<path d="M21.6909 87.8034H21.5132L7.46739 82.6069C7.1118 82.4277 6.75622 82.0693 6.93401 81.7109C7.1118 81.3525 7.46739 81.1733 8.00078 81.1733L22.0465 86.3699C22.4021 86.5491 22.5799 86.9074 22.5799 87.445C22.4021 87.6242 22.0465 87.8034 21.6909 87.8034Z" fill="black" stroke="#0C0B0E" stroke-miterlimit="10"/>
<path d="M17.6009 105.185L2.84399 102.497C2.4884 102.497 2.13281 101.959 2.13281 101.601C2.13281 101.243 2.6662 100.884 3.02178 100.884L17.7787 103.572C18.1343 103.572 18.4899 104.11 18.4899 104.468C18.3121 105.006 17.9565 105.185 17.6009 105.185Z" fill="black" stroke="#0C0B0E" stroke-miterlimit="10"/>
<path d="M16.5346 123.104H1.59985C1.24426 123.104 0.888672 122.746 0.888672 122.387C0.888672 122.029 1.24426 121.67 1.59985 121.67H16.5346C16.8902 121.67 17.2458 122.029 17.2458 122.387C17.4236 122.746 17.068 123.104 16.5346 123.104Z" fill="black" stroke="#0C0B0E" stroke-miterlimit="10"/>
<path d="M235.222 117.191H220.287C219.932 117.191 219.576 116.832 219.576 116.474C219.576 116.116 219.932 115.757 220.287 115.757H235.222C235.578 115.757 235.933 116.116 235.933 116.474C236.111 116.832 235.755 117.191 235.222 117.191Z" fill="black" stroke="#0C0B0E" stroke-miterlimit="10"/>
<path d="M218.33 99.451C217.975 99.451 217.619 99.2718 217.619 98.7342C217.619 98.3758 217.797 97.8383 218.33 97.8383L233.087 95.1504C233.443 95.1504 233.976 95.3296 233.976 95.8672C233.976 96.2255 233.798 96.7631 233.265 96.7631L218.33 99.451Z" fill="black" stroke="#0C0B0E" stroke-miterlimit="10"/>
<path d="M213.174 82.2485C212.819 82.2485 212.641 82.0693 212.463 81.7109C212.285 81.3526 212.463 80.815 212.997 80.6358L227.042 75.4393C227.398 75.2601 227.931 75.4393 228.109 75.9768C228.287 76.3352 228.109 76.8728 227.576 77.052L213.53 82.2485C213.352 82.2485 213.352 82.2485 213.174 82.2485Z" fill="black" stroke="#0C0B0E" stroke-miterlimit="10"/>
<path d="M205.175 66.3008C204.82 66.3008 204.642 66.1216 204.464 65.9424C204.286 65.5841 204.464 65.0465 204.82 64.8673L217.799 57.3413C218.154 57.1621 218.688 57.3413 218.866 57.6997C219.043 58.0581 218.866 58.5956 218.51 58.7748L205.531 66.3008C205.531 66.3008 205.353 66.3008 205.175 66.3008Z" fill="black" stroke="#0C0B0E" stroke-miterlimit="10"/>
<path d="M194.684 51.9653C194.506 51.9653 194.329 51.7861 194.151 51.6069C193.795 51.2486 193.973 50.711 194.329 50.5318L205.707 40.8555C206.063 40.4971 206.596 40.6763 206.774 41.0347C207.13 41.3931 206.952 41.9307 206.596 42.1098L195.218 51.7861C195.04 51.9653 194.862 51.9653 194.684 51.9653Z" fill="black" stroke="#0C0B0E" stroke-miterlimit="10"/>
<path d="M181.705 39.6015C181.527 39.6015 181.349 39.6015 181.172 39.4223C180.816 39.0639 180.816 38.7055 180.994 38.3471L190.595 26.8789C190.95 26.5205 191.306 26.5205 191.661 26.6997C192.017 27.0581 192.017 27.4165 191.839 27.7749L182.238 39.2431C182.238 39.6015 181.883 39.6015 181.705 39.6015Z" fill="black" stroke="#0C0B0E" stroke-miterlimit="10"/>
<path d="M166.949 29.7459C166.771 29.7459 166.771 29.7459 166.593 29.5667C166.237 29.3875 166.06 28.8499 166.237 28.4915L173.705 15.4106C173.883 15.0522 174.416 14.873 174.772 15.0522C175.127 15.2314 175.305 15.769 175.127 16.1274L167.66 29.2083C167.482 29.7459 167.126 29.7459 166.949 29.7459Z" fill="black" stroke="#0C0B0E" stroke-miterlimit="10"/>
<path d="M150.592 22.7571H150.414C150.059 22.5779 149.881 22.2195 149.881 21.6819L155.037 7.52585C155.215 7.16747 155.57 6.98828 156.104 6.98828C156.281 7.16747 156.637 7.70504 156.459 8.06343L151.303 22.2195C151.125 22.5779 150.948 22.7571 150.592 22.7571Z" fill="black" stroke="#0C0B0E" stroke-miterlimit="10"/>
<path d="M133.346 18.6359C132.812 18.6359 132.457 18.0984 132.634 17.74L135.123 2.86715C135.123 2.50877 135.657 2.15039 136.012 2.15039C136.368 2.15039 136.724 2.68796 136.724 3.04634L134.057 17.9192C134.057 18.2776 133.701 18.6359 133.346 18.6359Z" fill="black" stroke="#0C0B0E" stroke-miterlimit="10"/>
<path d="M116.455 56.0869V112.89C132.101 112.89 144.724 100.168 144.724 84.3991C144.724 68.6303 132.101 56.0869 116.455 56.0869Z" fill="#FECE01"/>
<path d="M88.1855 84.3991C88.1855 100.168 100.809 112.89 116.455 112.89V56.0869C100.809 56.0869 88.1855 68.8095 88.1855 84.3991Z" fill="#00AD13"/>
</g>
<defs>
<clipPath id="clip0_1_4578">
<rect width="237" height="124" fill="white"/>
</clipPath>
</defs>
</svg>
