<svg width="191" height="168" viewBox="0 0 191 168" fill="none" xmlns="http://www.w3.org/2000/svg">
<path d="M13.3639 103.577C20.3657 115.704 57.4518 107.401 96.1979 85.0307C134.944 62.6606 160.678 34.6948 153.676 22.5672C146.674 10.4397 109.588 18.7429 70.8421 41.113C32.0959 63.4832 6.36206 91.449 13.3639 103.577Z" stroke="#0E0E0E" stroke-miterlimit="10"/>
<path d="M25.4635 124.534C32.4654 136.661 69.5514 128.358 108.298 105.988C147.044 83.6176 172.778 55.6518 165.776 43.5243C158.774 31.3967 121.688 39.7 82.9417 62.0701C44.1956 84.4402 18.4617 112.406 25.4635 124.534Z" stroke="#0E0E0E" stroke-miterlimit="10"/>
<path d="M37.5632 145.491C44.565 157.619 81.6511 149.315 120.397 126.945C159.143 104.575 184.877 76.6093 177.875 64.4818C170.874 52.3543 133.788 60.6575 95.0414 83.0276C56.2952 105.398 30.5613 133.364 37.5632 145.491Z" stroke="#0E0E0E" stroke-miterlimit="10"/>
</svg>
