<svg width="334" height="334" viewBox="0 0 334 334" fill="none" xmlns="http://www.w3.org/2000/svg">
<path d="M255.38 333.487C255.38 287.941 218.339 251.013 172.655 251.013C126.971 251.013 89.9297 287.941 89.9297 333.487" fill="#FFF5EE"/>
<path d="M50.1075 94.8859C57.0402 94.8859 62.6603 89.2829 62.6603 82.3712C62.6603 75.4595 57.0402 69.8564 50.1075 69.8564C43.1748 69.8564 37.5547 75.4595 37.5547 82.3712C37.5547 89.2829 43.1748 94.8859 50.1075 94.8859Z" fill="#FFCC0E"/>
<path d="M61.2197 95.4291C65.9439 91.7035 66.7442 84.8651 63.0072 80.1552C59.2702 75.4452 52.4111 74.6473 47.6868 78.373C42.9626 82.0987 42.1622 88.937 45.8992 93.647C49.6362 98.3569 56.4954 99.1548 61.2197 95.4291Z" stroke="#000102" stroke-miterlimit="10" stroke-linecap="round" stroke-linejoin="round"/>
<path d="M312.592 28.6193C319.525 28.6193 325.145 23.0163 325.145 16.1046C325.145 9.19288 319.525 3.58984 312.592 3.58984C305.659 3.58984 300.039 9.19288 300.039 16.1046C300.039 23.0163 305.659 28.6193 312.592 28.6193Z" fill="#3A95FF"/>
<path d="M308.164 22.4647C314.188 22.4647 319.071 17.5965 319.071 11.5912C319.071 5.58599 314.188 0.717773 308.164 0.717773C302.141 0.717773 297.258 5.58599 297.258 11.5912C297.258 17.5965 302.141 22.4647 308.164 22.4647Z" stroke="#000102" stroke-miterlimit="10" stroke-linecap="round" stroke-linejoin="round"/>
<path d="M162.878 183.618C166.515 183.618 169.463 180.678 169.463 177.052C169.463 173.427 166.515 170.487 162.878 170.487C159.241 170.487 156.293 173.427 156.293 177.052C156.293 180.678 159.241 183.618 162.878 183.618Z" fill="#0048B9"/>
<path d="M162.879 187.926C168.903 187.926 173.786 183.057 173.786 177.052C173.786 171.047 168.903 166.179 162.879 166.179C156.856 166.179 151.973 171.047 151.973 177.052C151.973 183.057 156.856 187.926 162.879 187.926Z" stroke="#000102" stroke-miterlimit="10" stroke-linecap="round" stroke-linejoin="round"/>
<path d="M19.9591 229.676C26.8918 229.676 32.5119 224.073 32.5119 217.161C32.5119 210.25 26.8918 204.646 19.9591 204.646C13.0263 204.646 7.40625 210.25 7.40625 217.161C7.40625 224.073 13.0263 229.676 19.9591 229.676Z" fill="#FF4A2A"/>
<path d="M18.365 232.6C22.9941 228.758 23.6226 221.902 19.7687 217.287C15.9149 212.672 9.0381 212.046 4.40902 215.888C-0.220051 219.73 -0.848492 226.586 3.00536 231.201C6.8592 235.816 13.736 236.443 18.365 232.6Z" stroke="#000102" stroke-miterlimit="10" stroke-linecap="round" stroke-linejoin="round"/>
<path d="M188.33 34.743C192.71 26.7356 189.751 16.7039 181.719 12.3366C173.687 7.96943 163.625 10.9204 159.244 18.9279C154.864 26.9354 157.824 36.9671 165.855 41.3343C173.887 45.7015 183.949 42.7505 188.33 34.743Z" fill="#FFC1D2"/>
<path d="M181.488 34.5021C185.747 30.2558 185.747 23.3712 181.488 19.1249C177.228 14.8785 170.323 14.8785 166.064 19.1249C161.804 23.3712 161.804 30.2558 166.064 34.5021C170.323 38.7484 177.228 38.7484 181.488 34.5021Z" stroke="#000102" stroke-miterlimit="10" stroke-linecap="round" stroke-linejoin="round"/>
<path d="M202.695 142.38V113.863" stroke="#000102" stroke-miterlimit="10" stroke-linecap="round" stroke-linejoin="round"/>
<path d="M209.488 145.15V116.633" stroke="#000102" stroke-miterlimit="10" stroke-linecap="round" stroke-linejoin="round"/>
<path d="M195.906 145.15V116.633" stroke="#000102" stroke-miterlimit="10" stroke-linecap="round" stroke-linejoin="round"/>
<path d="M200.637 112.222C200.637 113.35 201.563 114.273 202.695 114.273C203.826 114.273 204.752 113.35 204.752 112.222C204.752 111.093 203.826 110.17 202.695 110.17C201.563 110.273 200.637 111.093 200.637 112.222Z" fill="#000102"/>
<path d="M207.43 116.838C207.43 117.966 208.356 118.889 209.488 118.889C210.619 118.889 211.545 117.966 211.545 116.838C211.545 115.709 210.619 114.786 209.488 114.786C208.356 114.786 207.43 115.709 207.43 116.838Z" fill="#000102"/>
<path d="M193.949 116.838C193.949 117.966 194.875 118.889 196.007 118.889C197.139 118.889 198.065 117.966 198.065 116.838C198.065 115.709 197.139 114.786 196.007 114.786C194.875 114.786 193.949 115.709 193.949 116.838Z" fill="#000102"/>
<path d="M212.883 187.207C205.577 193.567 203.211 202.697 203.211 202.697C203.211 202.697 212.574 201.568 219.879 195.311C227.185 188.951 229.551 179.821 229.551 179.821C229.551 179.821 220.188 180.95 212.883 187.207Z" fill="#00B265"/>
<path d="M179.856 113.555L202.698 136.43L225.643 113.555L244.061 132.019L202.698 173.256L161.336 132.019L179.856 113.555Z" fill="#FFCC0E"/>
<path d="M191.786 144.739L202.693 155.613L213.702 144.739L222.448 153.561L202.693 173.256L182.938 153.561L191.786 144.739Z" fill="#00B265"/>
<path d="M158.555 129.25L202.695 173.257L246.836 129.25" stroke="#000102" stroke-miterlimit="10" stroke-linecap="round" stroke-linejoin="round"/>
<path d="M162.875 124.942L202.694 164.64L242.513 124.942" stroke="#000102" stroke-miterlimit="10" stroke-linecap="round" stroke-linejoin="round"/>
<path d="M167.301 120.531L202.696 155.818L238.09 120.531" stroke="#000102" stroke-miterlimit="10" stroke-linecap="round" stroke-linejoin="round"/>
<path d="M172.238 115.607L202.694 145.97L233.15 115.607" stroke="#000102" stroke-miterlimit="10" stroke-linecap="round" stroke-linejoin="round"/>
<path d="M177.074 110.785L202.694 136.43L228.417 110.785" stroke="#000102" stroke-miterlimit="10" stroke-linecap="round" stroke-linejoin="round"/>
<path d="M202.695 173.257V228.958" stroke="#000102" stroke-miterlimit="10" stroke-linecap="round" stroke-linejoin="round"/>
<path d="M142.609 84.526V56.0088" stroke="#000102" stroke-miterlimit="10" stroke-linecap="round" stroke-linejoin="round"/>
<path d="M149.402 87.2958V58.7786" stroke="#000102" stroke-miterlimit="10" stroke-linecap="round" stroke-linejoin="round"/>
<path d="M135.82 87.2958V58.7786" stroke="#000102" stroke-miterlimit="10" stroke-linecap="round" stroke-linejoin="round"/>
<path d="M140.551 54.367C140.551 55.4954 141.477 56.4186 142.609 56.4186C143.74 56.4186 144.666 55.4954 144.666 54.367C144.666 53.2386 143.74 52.3154 142.609 52.3154C141.477 52.3154 140.551 53.2386 140.551 54.367Z" fill="#000102"/>
<path d="M147.344 58.9832C147.344 60.1116 148.27 61.0348 149.402 61.0348C150.533 61.0348 151.459 60.1116 151.459 58.9832C151.459 57.8549 150.533 56.9316 149.402 56.9316C148.27 56.9316 147.344 57.8549 147.344 58.9832Z" fill="#000102"/>
<path d="M133.762 58.9832C133.762 60.1116 134.688 61.0348 135.82 61.0348C136.951 61.0348 137.877 60.1116 137.877 58.9832C137.877 57.8549 136.951 56.9316 135.82 56.9316C134.688 56.9316 133.762 57.8549 133.762 58.9832Z" fill="#000102"/>
<path d="M181.297 77.1396V84.628C181.297 105.862 164.011 123.198 142.609 123.198C121.311 123.198 103.922 105.965 103.922 84.628V77.1396H181.297Z" fill="#0048B9"/>
<path d="M163.393 77.1396V84.3202C163.393 95.7066 154.132 105.041 142.608 105.041C131.187 105.041 121.824 95.8092 121.824 84.3202V77.1396H163.393Z" fill="#3A95FF"/>
<path d="M103.922 71.0879V84.6284C103.922 105.862 121.208 123.198 142.609 123.198C163.908 123.198 181.297 105.965 181.297 84.6284V71.0879" stroke="#000102" stroke-miterlimit="10" stroke-linecap="round" stroke-linejoin="round"/>
<path d="M113.078 71.0879V84.6284C113.078 100.939 126.351 114.069 142.608 114.069C158.968 114.069 172.138 100.836 172.138 84.6284V71.0879" stroke="#000102" stroke-miterlimit="10" stroke-linecap="round" stroke-linejoin="round"/>
<path d="M122.133 71.0879V84.6284C122.133 95.9122 131.29 105.042 142.608 105.042C153.926 105.042 163.084 95.9122 163.084 84.6284V71.0879" stroke="#000102" stroke-miterlimit="10" stroke-linecap="round" stroke-linejoin="round"/>
<path d="M131.293 71.0879V84.6284C131.293 90.8858 136.335 95.9122 142.611 95.9122C148.887 95.9122 153.929 90.8858 153.929 84.6284V71.0879" stroke="#000102" stroke-miterlimit="10" stroke-linecap="round" stroke-linejoin="round"/>
<path d="M138.184 133.25C143.123 137.559 142.917 145.97 142.917 145.97C142.917 145.97 134.583 147.406 129.644 143.098C124.706 138.79 124.911 130.378 124.911 130.378C124.911 130.378 133.246 128.942 138.184 133.25Z" fill="#FFCC0E"/>
<path d="M142.609 123.198V221.162" stroke="#000102" stroke-miterlimit="10" stroke-linecap="round" stroke-linejoin="round"/>
<path d="M72.1289 144.842V116.223" stroke="#000102" stroke-miterlimit="10" stroke-linecap="round" stroke-linejoin="round"/>
<path d="M78.9219 147.612V118.992" stroke="#000102" stroke-miterlimit="10" stroke-linecap="round" stroke-linejoin="round"/>
<path d="M65.3398 147.612V118.992" stroke="#000102" stroke-miterlimit="10" stroke-linecap="round" stroke-linejoin="round"/>
<path d="M70.0703 114.684C70.0703 115.813 70.9963 116.736 72.1282 116.736C73.26 116.736 74.186 115.813 74.186 114.684C74.186 113.556 73.26 112.633 72.1282 112.633C70.9963 112.633 70.0703 113.556 70.0703 114.684Z" fill="#000102"/>
<path d="M76.8633 119.198C76.8633 120.326 77.7893 121.249 78.9211 121.249C80.0529 121.249 80.979 120.326 80.979 119.198C80.979 118.069 80.0529 117.146 78.9211 117.146C77.7893 117.249 76.8633 118.069 76.8633 119.198Z" fill="#000102"/>
<path d="M63.2812 119.198C63.2812 120.326 64.2073 121.249 65.3391 121.249C66.4709 121.249 67.3969 120.326 67.3969 119.198C67.3969 118.069 66.4709 117.146 65.3391 117.146C64.2073 117.249 63.2812 118.069 63.2812 119.198Z" fill="#000102"/>
<path d="M110.506 136.739H33.2344V182.797H110.506V136.739Z" fill="#FFC1D2"/>
<path d="M92.2934 136.739H51.4453V164.641H92.2934V136.739Z" fill="#FF4A2A"/>
<path d="M33.2344 130.687V182.797H110.506V130.687" stroke="#000102" stroke-miterlimit="10" stroke-linecap="round" stroke-linejoin="round"/>
<path d="M42.3906 130.687V173.667H101.451V130.687" stroke="#000102" stroke-miterlimit="10" stroke-linecap="round" stroke-linejoin="round"/>
<path d="M51.4453 130.687V164.64H92.2934V130.687" stroke="#000102" stroke-miterlimit="10" stroke-linecap="round" stroke-linejoin="round"/>
<path d="M60.6055 130.687V155.511H83.2417V130.687" stroke="#000102" stroke-miterlimit="10" stroke-linecap="round" stroke-linejoin="round"/>
<path d="M67.4969 206.391C72.4357 210.699 72.23 219.111 72.23 219.111C72.23 219.111 63.8957 220.547 58.9569 216.239C54.0181 211.93 54.2239 203.519 54.2239 203.519C54.2239 203.519 62.4552 202.083 67.4969 206.391Z" fill="#0048B9"/>
<path d="M71.9219 182.798V283.942" stroke="#000102" stroke-miterlimit="10" stroke-linecap="round" stroke-linejoin="round"/>
<path d="M273.484 100.117V288.146" stroke="#000102" stroke-miterlimit="10" stroke-linecap="round" stroke-linejoin="round"/>
<path d="M273.484 60.1119V31.5947" stroke="#000102" stroke-miterlimit="10" stroke-linecap="round" stroke-linejoin="round"/>
<path d="M280.277 62.8817V34.3645" stroke="#000102" stroke-miterlimit="10" stroke-linecap="round" stroke-linejoin="round"/>
<path d="M266.695 62.8817V34.3645" stroke="#000102" stroke-miterlimit="10" stroke-linecap="round" stroke-linejoin="round"/>
<path d="M271.426 29.953C271.426 31.0813 272.352 32.0046 273.484 32.0046C274.615 32.0046 275.541 31.0813 275.541 29.953C275.541 28.8246 274.615 27.9014 273.484 27.9014C272.352 27.9014 271.426 28.8246 271.426 29.953Z" fill="#000102"/>
<path d="M278.219 34.5692C278.219 35.6976 279.145 36.6208 280.277 36.6208C281.408 36.6208 282.334 35.6976 282.334 34.5692C282.334 33.4408 281.408 32.5176 280.277 32.5176C279.145 32.5176 278.219 33.4408 278.219 34.5692Z" fill="#000102"/>
<path d="M264.637 34.5692C264.637 35.6976 265.563 36.6208 266.695 36.6208C267.826 36.6208 268.752 35.6976 268.752 34.5692C268.752 33.4408 267.826 32.5176 266.695 32.5176C265.563 32.5176 264.637 33.4408 264.637 34.5692Z" fill="#000102"/>
<path d="M328.945 52.3154C325.035 79.2939 301.678 100.118 273.486 100.118C245.294 100.118 221.937 79.2939 218.027 52.3154H328.945Z" fill="#FF4A2A"/>
<path d="M243.031 52.3154C246.838 66.3689 257.745 75.8062 273.487 75.8062C289.127 75.8062 300.239 65.5482 303.943 52.3154H243.031Z" fill="#FFC1D2"/>
<path d="M249.617 44.2119C249.617 57.3421 260.318 68.0104 273.488 68.0104C286.658 68.0104 297.359 57.3421 297.359 44.2119" stroke="#000102" stroke-miterlimit="10" stroke-linecap="round" stroke-linejoin="round"/>
<path d="M241.695 44.2119C241.695 61.7531 255.894 75.9091 273.489 75.9091C291.083 75.9091 305.283 61.7531 305.283 44.2119" stroke="#000102" stroke-miterlimit="10" stroke-linecap="round" stroke-linejoin="round"/>
<path d="M233.773 44.2119C233.773 66.0614 251.574 83.8077 273.49 83.8077C295.406 83.8077 313.206 66.0614 313.206 44.2119" stroke="#000102" stroke-miterlimit="10" stroke-linecap="round" stroke-linejoin="round"/>
<path d="M225.641 44.2119C225.641 70.5749 247.042 91.9115 273.485 91.9115C299.929 91.9115 321.33 70.5749 321.33 44.2119" stroke="#000102" stroke-miterlimit="10" stroke-linecap="round" stroke-linejoin="round"/>
<path d="M217.41 44.2119C217.41 75.0885 242.516 100.118 273.486 100.118C304.457 100.118 329.562 75.0885 329.562 44.2119" stroke="#000102" stroke-miterlimit="10" stroke-linecap="round" stroke-linejoin="round"/>
<path d="M338 168.642V333.487H172.652L338 168.642Z" fill="#00B265"/>
<path d="M255.277 144.432L258.261 140.124L258.055 145.253L262.891 143.612L259.804 147.612L264.743 149.151L259.804 150.587L262.891 154.588L258.055 152.947L258.261 158.075L255.277 153.767L252.396 158.075L252.499 152.947L247.663 154.588L250.853 150.587L245.914 149.151L250.853 147.612L247.663 143.612L252.499 145.253L252.396 140.124L255.277 144.432Z" fill="#FFC1D2"/>
<path d="M95.8957 202.185L98.7767 197.979L98.5709 203.108L103.51 201.365L100.32 205.468L105.259 206.904L100.32 208.34L103.51 212.443L98.5709 210.699L98.7767 215.828L95.8957 211.623L92.9119 215.828L93.1177 210.699L88.1788 212.443L91.3685 208.34L86.4297 206.904L91.3685 205.468L88.1788 201.365L93.1177 203.108L92.9119 197.979L95.8957 202.185Z" fill="#3A95FF"/>
<path d="M92.9114 36.2107L95.7923 32.0049L95.6895 37.1339L100.525 35.39L97.3357 39.4932L102.275 40.9293L97.3357 42.3654L100.525 46.4686L95.6895 44.7248L95.7923 49.8538L92.9114 45.648L89.9275 49.8538L90.1333 44.7248L85.2974 46.4686L88.3841 42.3654L83.4453 40.9293L88.3841 39.4932L85.2974 35.39L90.1333 37.1339L89.9275 32.0049L92.9114 36.2107Z" fill="#FF4A2A"/>
<path d="M245.911 4.20577L248.792 0L248.689 5.12899L253.525 3.38514L250.336 7.48833L255.275 8.92445L250.336 10.3606L253.525 14.4638L248.689 12.7199L248.792 17.8489L245.911 13.6431L242.928 17.8489L243.133 12.7199L238.297 14.4638L241.384 10.3606L236.445 8.92445L241.384 7.48833L238.297 3.38514L243.133 5.12899L242.928 0L245.911 4.20577Z" fill="#FFCC0E"/>
<path d="M232.74 333.487C232.74 300.457 205.885 273.581 172.651 273.581C139.52 273.581 112.562 300.354 112.562 333.487" fill="#FFCC0E"/>
<path d="M202.594 333.487C202.594 316.972 189.218 303.637 172.653 303.637C156.087 303.637 142.711 316.972 142.711 333.487" stroke="#000102" stroke-miterlimit="10" stroke-linecap="round" stroke-linejoin="round"/>
<path d="M212.571 333.488C212.571 311.535 194.668 293.687 172.649 293.687C150.63 293.687 132.727 311.535 132.727 333.488" stroke="#000102" stroke-miterlimit="10" stroke-linecap="round" stroke-linejoin="round"/>
<path d="M222.451 333.488C222.451 305.996 200.123 283.839 172.651 283.839C145.179 283.839 122.852 306.099 122.852 333.488" stroke="#000102" stroke-miterlimit="10" stroke-linecap="round" stroke-linejoin="round"/>
<path d="M232.74 333.488C232.74 300.457 205.885 273.581 172.651 273.581C139.52 273.581 112.562 300.354 112.562 333.488" stroke="#000102" stroke-miterlimit="10" stroke-linecap="round" stroke-linejoin="round"/>
<path d="M243.03 333.488C243.03 294.713 211.545 263.323 172.652 263.323C133.758 263.323 102.273 294.713 102.273 333.488" stroke="#000102" stroke-miterlimit="10" stroke-linecap="round" stroke-linejoin="round"/>
<path d="M255.377 333.488C255.377 287.942 218.336 251.013 172.652 251.013C126.968 251.013 89.9269 287.942 89.9269 333.488H56.2812C56.2812 269.375 108.345 217.47 172.652 217.47C236.959 217.47 289.023 269.375 289.023 333.488H255.377Z" fill="#0048B9"/>
<path d="M114.93 232.754L131.804 261.887C131.496 262.092 131.187 262.194 130.878 262.399L114.004 233.369C114.313 233.062 114.621 232.959 114.93 232.754Z" fill="#000102"/>
<path d="M60.1902 303.534C60.1902 303.329 60.2931 303.227 60.2931 303.021L92.8069 311.741C92.704 312.049 92.6011 312.356 92.4982 312.767L59.9844 304.047C60.0873 303.842 60.1902 303.637 60.1902 303.534Z" fill="#000102"/>
<path d="M90.7515 251.116L114.52 274.812C114.314 275.017 114.005 275.325 113.799 275.53L90.0312 251.834C90.237 251.629 90.4428 251.321 90.7515 251.116Z" fill="#000102"/>
<path d="M72.1277 275.017L101.246 291.84C101.04 292.147 100.937 292.455 100.732 292.763L71.6133 275.94C71.7162 275.632 71.922 275.324 72.1277 275.017Z" fill="#000102"/>
<path d="M289.025 332.975C289.025 333.18 289.025 333.282 289.025 333.488H255.379C255.379 333.282 255.379 333.18 255.379 332.975H289.025Z" fill="#000102"/>
<path d="M150.738 253.989L141.992 221.573C142.301 221.471 142.507 221.471 142.815 221.368C142.918 221.368 142.918 221.368 143.021 221.368L151.767 253.783C151.355 253.783 151.047 253.886 150.738 253.989Z" fill="#000102"/>
<path d="M244.573 292.763C244.367 292.455 244.264 292.147 244.059 291.84L273.177 275.017C273.383 275.324 273.486 275.632 273.691 275.94L244.573 292.763Z" fill="#000102"/>
<path d="M89.9269 332.975C89.9269 333.18 89.9269 333.282 89.9269 333.488H56.2812C56.2812 333.282 56.2812 333.18 56.2812 332.975H89.9269Z" fill="#000102"/>
<path d="M173.166 251.013C172.96 251.013 172.857 251.013 172.651 251.013C172.445 251.013 172.343 251.013 172.137 251.013V217.47C172.343 217.47 172.445 217.47 172.651 217.47C172.857 217.47 172.96 217.47 173.166 217.47V251.013Z" fill="#000102"/>
<path d="M252.703 312.664C252.6 312.356 252.497 312.049 252.395 311.638L284.908 302.919C285.011 303.227 285.114 303.534 285.217 303.945L252.703 312.664Z" fill="#000102"/>
<path d="M231.3 233.267L214.426 262.297C214.117 262.092 213.809 261.989 213.5 261.784L230.374 232.651C230.683 232.959 230.992 233.062 231.3 233.267Z" fill="#000102"/>
<path d="M202.904 221.471C203.006 221.471 203.109 221.573 203.212 221.573L194.466 253.989C194.158 253.886 193.849 253.783 193.438 253.681L202.183 221.266C202.492 221.368 202.698 221.368 202.904 221.471Z" fill="#000102"/>
<path d="M255.277 251.834L231.509 275.53C231.304 275.325 230.995 275.017 230.789 274.812L254.557 251.116C254.866 251.321 255.072 251.629 255.277 251.834Z" fill="#000102"/>
</svg>
