<svg width="433" height="432" viewBox="0 0 433 432" fill="none" xmlns="http://www.w3.org/2000/svg">
<mask id="mask0_1_4740" style="mask-type:luminance" maskUnits="userSpaceOnUse" x="1" y="0" width="432" height="432">
<path d="M1.45468 0.0361328H433V431.833H1.45468V0.0361328Z" fill="white"/>
</mask>
<g mask="url(#mask0_1_4740)">
<path d="M396.592 0.0356445H1.45395V395.571L396.592 0.0356445Z" fill="#0048B9"/>
<path d="M97.9841 -2.30375L66.9209 -95.5479L160.111 -64.4665L191.174 28.7776L97.9841 -2.30375Z" fill="#0048B9"/>
<path d="M160.111 -64.466L191.174 28.7781L206.873 13.2374L175.81 -80.1738L160.111 -64.466Z" fill="#FF4A2A"/>
<path d="M68.2556 27.608L37.0253 -65.8032L130.382 -34.7219L161.445 58.6894L68.2556 27.608Z" fill="#0048B9"/>
<path d="M130.383 -34.7215L161.446 58.6897L177.145 42.9819L145.914 -50.2622L130.383 -34.7215Z" fill="#FFCC0E"/>
<path d="M39.1971 56.5165L8.13387 -36.7275L101.324 -5.64618L132.387 87.5979L39.1971 56.5165Z" fill="#0048B9"/>
<path d="M101.324 -5.64573L132.387 87.5984L148.086 72.0577L117.023 -21.3535L101.324 -5.64573Z" fill="#3A95FF"/>
<path d="M9.47041 86.4283L-21.7598 -6.98291L71.5969 24.0985L102.66 117.51L9.47041 86.4283Z" fill="#0048B9"/>
<path d="M71.5975 24.0986L-21.7592 -6.98276L-6.06056 -22.5234L87.1292 8.55792L71.5975 24.0986Z" fill="#FFC1D2"/>
<path d="M71.5975 24.0988L102.661 117.51L118.359 101.802L87.1291 8.55811L71.5975 24.0988Z" fill="#FF4A2A"/>
<path d="M-20.4234 116.173L-51.4866 22.7617L41.8701 53.8431L72.9333 147.254L-20.4234 116.173Z" fill="#0048B9"/>
<path d="M41.8705 53.8432L-51.4863 22.7619L-35.7877 7.22119L57.4021 38.3026L41.8705 53.8432Z" fill="#3A95FF"/>
<path d="M41.8697 53.8434L72.933 147.255L88.4646 131.714L57.4014 38.3027L41.8697 53.8434Z" fill="#FFCC0E"/>
<path d="M-49.3164 145.249L-80.5467 51.8379L12.81 82.9193L43.8733 176.33L-49.3164 145.249Z" fill="#0048B9"/>
<path d="M12.8106 82.9196L43.8739 176.331L59.5725 160.623L28.3423 67.3789L12.8106 82.9196Z" fill="#3A95FF"/>
<path d="M12.8107 82.9194L-80.5461 51.8381L-64.8475 36.2974L28.3423 67.3787L12.8107 82.9194Z" fill="#FFCC0E"/>
<path d="M-79.2103 174.994L-110.273 81.5825L-16.9167 112.664L14.1465 206.075L-79.2103 174.994Z" fill="#0048B9"/>
<path d="M-16.9171 112.664L14.1461 206.075L29.6777 190.535L-1.38552 97.1235L-16.9171 112.664Z" fill="#FF4A2A"/>
<path d="M304.151 30.3097L288.92 15.0649L304.156 -0.175458L319.387 15.0693L304.151 30.3097Z" fill="#FFF5EE"/>
<path d="M273.622 30.254L258.391 15.0093L273.626 -0.231122L288.858 15.0136L273.622 30.254Z" fill="#FFF5EE"/>
<path d="M273.681 60.6934L258.449 45.4487L273.685 30.2083L288.917 45.453L273.681 60.6934Z" fill="#FFF5EE"/>
<path d="M243.269 60.7589L228.037 45.5142L243.273 30.2738L258.504 45.5185L243.269 60.7589Z" fill="#FFF5EE"/>
<path d="M243.21 91.317L227.979 76.0723L243.214 60.8319L258.446 76.0766L243.21 91.317Z" fill="#FFF5EE"/>
<path d="M212.681 91.2623L197.449 76.0176L212.685 60.7772L227.917 76.0219L212.681 91.2623Z" fill="#FFF5EE"/>
<path d="M213.192 121.263L197.961 106.019L213.197 90.7782L228.428 106.023L213.192 121.263Z" fill="#FFF5EE"/>
<path d="M182.78 121.327L167.549 106.082L182.785 90.8416L198.016 106.086L182.78 121.327Z" fill="#FFF5EE"/>
<path d="M182.841 151.766L167.609 136.521L182.845 121.281L198.077 136.526L182.841 151.766Z" fill="#FFF5EE"/>
<path d="M152.312 151.71L137.08 136.465L152.316 121.225L167.547 136.47L152.312 151.71Z" fill="#FFF5EE"/>
<path d="M152.251 182.268L137.02 167.023L152.255 151.783L167.487 167.028L152.251 182.268Z" fill="#FFF5EE"/>
<path d="M121.841 182.334L106.609 167.089L121.845 151.849L137.077 167.094L121.841 182.334Z" fill="#FFF5EE"/>
<path d="M121.839 212.77L106.607 197.525L121.843 182.285L137.075 197.529L121.839 212.77Z" fill="#FFF5EE"/>
<path d="M91.3096 212.715L76.0781 197.471L91.3139 182.23L106.545 197.475L91.3096 212.715Z" fill="#FFF5EE"/>
<path d="M91.3682 243.155L76.1367 227.911L91.3725 212.67L106.604 227.915L91.3682 243.155Z" fill="#FFF5EE"/>
<path d="M60.9581 243.222L45.7266 227.977L60.9624 212.737L76.1939 227.981L60.9581 243.222Z" fill="#FFF5EE"/>
<path d="M60.8995 273.78L45.668 258.535L60.9038 243.295L76.1353 258.539L60.8995 273.78Z" fill="#FFF5EE"/>
<path d="M30.3682 273.726L15.1367 258.481L30.3725 243.241L45.604 258.486L30.3682 273.726Z" fill="#FFF5EE"/>
<path d="M30.8741 303.736L15.6426 288.491L30.8784 273.251L46.1099 288.496L30.8741 303.736Z" fill="#FFF5EE"/>
<path d="M0.344787 303.684L-14.8867 288.439L0.349095 273.199L15.5806 288.443L0.344787 303.684Z" fill="#FFF5EE"/>
<path d="M0.40338 334.124L-14.8281 318.879L0.407725 303.638L15.6392 318.883L0.40338 334.124Z" fill="#FFF5EE"/>
</g>
</svg>
