<svg width="36" height="36" viewBox="0 0 36 36" fill="none" xmlns="http://www.w3.org/2000/svg">
<path d="M30.3998 3.93669H26.884V2.17879C26.884 1.71257 26.6988 1.26544 26.3692 0.935774C26.0395 0.606105 25.5924 0.420898 25.1262 0.420898C24.6599 0.420898 24.2128 0.606105 23.8831 0.935774C23.5535 1.26544 23.3683 1.71257 23.3683 2.17879V3.93669H12.8209V2.17879C12.8209 1.71257 12.6357 1.26544 12.306 0.935774C11.9763 0.606105 11.5292 0.420898 11.063 0.420898C10.5968 0.420898 10.1496 0.606105 9.81997 0.935774C9.4903 1.26544 9.3051 1.71257 9.3051 2.17879V3.93669H5.78931C4.39064 3.93669 3.04926 4.49231 2.06025 5.48131C1.07124 6.47032 0.515625 7.8117 0.515625 9.21037V30.3051C0.515625 31.7038 1.07124 33.0452 2.06025 34.0342C3.04926 35.0232 4.39064 35.5788 5.78931 35.5788H30.3998C31.7985 35.5788 33.1399 35.0232 34.1289 34.0342C35.1179 33.0452 35.6735 31.7038 35.6735 30.3051V9.21037C35.6735 7.8117 35.1179 6.47032 34.1289 5.48131C33.1399 4.49231 31.7985 3.93669 30.3998 3.93669ZM32.1577 30.3051C32.1577 30.7713 31.9725 31.2185 31.6429 31.5481C31.3132 31.8778 30.8661 32.063 30.3998 32.063H5.78931C5.32309 32.063 4.87596 31.8778 4.54629 31.5481C4.21662 31.2185 4.03141 30.7713 4.03141 30.3051V17.9998H32.1577V30.3051ZM32.1577 14.4841H4.03141V9.21037C4.03141 8.74415 4.21662 8.29702 4.54629 7.96735C4.87596 7.63768 5.32309 7.45248 5.78931 7.45248H9.3051V9.21037C9.3051 9.67659 9.4903 10.1237 9.81997 10.4534C10.1496 10.7831 10.5968 10.9683 11.063 10.9683C11.5292 10.9683 11.9763 10.7831 12.306 10.4534C12.6357 10.1237 12.8209 9.67659 12.8209 9.21037V7.45248H23.3683V9.21037C23.3683 9.67659 23.5535 10.1237 23.8831 10.4534C24.2128 10.7831 24.6599 10.9683 25.1262 10.9683C25.5924 10.9683 26.0395 10.7831 26.3692 10.4534C26.6988 10.1237 26.884 9.67659 26.884 9.21037V7.45248H30.3998C30.8661 7.45248 31.3132 7.63768 31.6429 7.96735C31.9725 8.29702 32.1577 8.74415 32.1577 9.21037V14.4841Z" fill="black"/>
</svg>
