<svg width="30" height="31" viewBox="0 0 30 31" fill="none" xmlns="http://www.w3.org/2000/svg">
<path d="M27.9902 30.0345C28.4754 30.0345 28.8798 29.8728 29.2032 29.5493C29.5267 29.2258 29.6885 28.8215 29.6885 28.3362V21.7857C29.6885 21.4083 29.5672 21.0778 29.3246 20.7942C29.0819 20.5106 28.7719 20.3289 28.3945 20.2491L22.8144 19.1169C22.437 19.063 22.0526 19.097 21.6612 19.2188C21.2698 19.3407 20.9533 19.5223 20.7118 19.7639L16.9108 23.5648C14.8621 22.3248 12.9816 20.8556 11.2693 19.1573C9.55694 17.4591 8.13523 15.6395 7.00411 13.6985L10.9264 9.73586C11.169 9.49324 11.3237 9.21666 11.3906 8.90612C11.4574 8.59557 11.4644 8.25214 11.4116 7.87582L10.3603 2.21484C10.3064 1.83744 10.1311 1.52743 9.8346 1.28482C9.53807 1.04221 9.20111 0.920898 8.82371 0.920898H2.27314C1.78792 0.920898 1.38356 1.08264 1.06008 1.40613C0.736591 1.72961 0.57485 2.13397 0.57485 2.61919C0.57485 6.09665 1.35014 9.48677 2.90071 12.7896C4.45127 16.0923 6.50001 19.0172 9.04692 21.5641C11.5938 24.111 14.5187 26.1597 17.8214 27.7103C21.1242 29.2609 24.5138 30.0356 27.9902 30.0345ZM5.46756 10.6254C5.00929 9.57411 4.65885 8.50931 4.41623 7.43103C4.17362 6.35275 3.98492 5.26099 3.85013 4.15575H7.4489L8.1363 7.95669L5.46756 10.6254ZM19.9435 25.1014L22.6527 22.3922L26.4536 23.1605V26.7188C25.3484 26.6379 24.2496 26.4627 23.1573 26.1931C22.065 25.9236 20.9937 25.5597 19.9435 25.1014Z" fill="black"/>
</svg>
