<svg width="547" height="573" viewBox="0 0 547 573" fill="none" xmlns="http://www.w3.org/2000/svg">
<g clip-path="url(#clip0_1_1460)">
<path d="M573 571.841H0V573H573V571.841Z" fill="black"/>
<path d="M573 508.298H0V509.457H573V508.298Z" fill="black"/>
<path d="M573 444.755H63.543V445.914H573V444.755Z" fill="black"/>
<path d="M573 381.235H127.086V382.394H573V381.235Z" fill="black"/>
<path d="M573 317.692H190.629V318.851H573V317.692Z" fill="black"/>
<path d="M572.999 254.149H254.148V255.308H572.999V254.149Z" fill="black"/>
<path d="M572.999 190.606H317.691V191.765H572.999V190.606Z" fill="black"/>
<path d="M572.999 127.086H381.234V128.245H572.999V127.086Z" fill="black"/>
<path d="M572.999 63.543H444.777V64.7017H572.999V63.543Z" fill="black"/>
<path d="M572.999 0H508.297V1.1587H572.999V0Z" fill="black"/>
<path d="M509.456 0H508.297V573H509.456V0Z" fill="black"/>
<path d="M445.936 63.543H444.777V573H445.936V63.543Z" fill="black"/>
<path d="M382.393 127.086H381.234V573H382.393V127.086Z" fill="black"/>
<path d="M318.85 190.606H317.691V573H318.85V190.606Z" fill="black"/>
<path d="M255.307 254.149H254.148V573H255.307V254.149Z" fill="black"/>
<path d="M191.788 317.692H190.629V573H191.788V317.692Z" fill="black"/>
<path d="M128.245 381.235H127.086V573H128.245V381.235Z" fill="black"/>
<path d="M64.7017 444.755H63.543V573H64.7017V444.755Z" fill="black"/>
<path d="M1.1587 508.298H0V573H1.1587V508.298Z" fill="black"/>
</g>
<defs>
<clipPath id="clip0_1_1460">
<rect width="573" height="573" fill="white"/>
</clipPath>
</defs>
</svg>
