<svg width="416" height="475" viewBox="0 0 416 475" fill="none" xmlns="http://www.w3.org/2000/svg">
<g clip-path="url(#clip0_1_717)">
<path d="M59.8674 0.685303H0.685547V59.8912H59.8674V0.685303Z" stroke="black" stroke-width="0.570913" stroke-miterlimit="10"/>
<path d="M119.031 0.685211H59.8495V59.8911H119.031V0.685211Z" stroke="black" stroke-width="0.570913" stroke-miterlimit="10"/>
<path d="M178.213 0.685211H119.031V59.8911H178.213V0.685211Z" stroke="black" stroke-width="0.570913" stroke-miterlimit="10"/>
<path d="M237.395 0.685211H178.213V59.8911H237.395V0.685211Z" stroke="black" stroke-width="0.570913" stroke-miterlimit="10"/>
<path d="M296.577 0.685211H237.395V59.8911H296.577V0.685211Z" stroke="black" stroke-width="0.570913" stroke-miterlimit="10"/>
<path d="M355.76 0.685303H296.578V59.8912H355.76V0.685303Z" stroke="black" stroke-width="0.570913" stroke-miterlimit="10"/>
<path d="M414.942 0.685303H355.76V59.8912H414.942V0.685303Z" stroke="black" stroke-width="0.570913" stroke-miterlimit="10"/>
<path d="M59.8675 59.8731H0.685608V119.079H59.8675V59.8731Z" stroke="black" stroke-width="0.570913" stroke-miterlimit="10"/>
<path d="M119.031 59.8731H59.8495V119.079H119.031V59.8731Z" stroke="black" stroke-width="0.570913" stroke-miterlimit="10"/>
<path d="M178.213 59.8731H119.031V119.079H178.213V59.8731Z" stroke="black" stroke-width="0.570913" stroke-miterlimit="10"/>
<path d="M237.395 59.8731H178.213V119.079H237.395V59.8731Z" stroke="black" stroke-width="0.570913" stroke-miterlimit="10"/>
<path d="M296.577 59.8731H237.395V119.079H296.577V59.8731Z" stroke="black" stroke-width="0.570913" stroke-miterlimit="10"/>
<path d="M355.76 59.873H296.578V119.079H355.76V59.873Z" stroke="black" stroke-width="0.570913" stroke-miterlimit="10"/>
<path d="M414.942 59.873H355.76V119.079H414.942V59.873Z" stroke="black" stroke-width="0.570913" stroke-miterlimit="10"/>
<path d="M59.8675 119.079H0.685608V178.285H59.8675V119.079Z" stroke="black" stroke-width="0.570913" stroke-miterlimit="10"/>
<path d="M119.031 119.079H59.8495V178.285H119.031V119.079Z" stroke="black" stroke-width="0.570913" stroke-miterlimit="10"/>
<path d="M178.213 119.079H119.031V178.285H178.213V119.079Z" stroke="black" stroke-width="0.570913" stroke-miterlimit="10"/>
<path d="M237.395 119.079H178.213V178.285H237.395V119.079Z" stroke="black" stroke-width="0.570913" stroke-miterlimit="10"/>
<path d="M296.577 119.079H237.395V178.285H296.577V119.079Z" stroke="black" stroke-width="0.570913" stroke-miterlimit="10"/>
<path d="M355.76 119.079H296.578V178.285H355.76V119.079Z" stroke="black" stroke-width="0.570913" stroke-miterlimit="10"/>
<path d="M414.942 119.079H355.76V178.285H414.942V119.079Z" stroke="black" stroke-width="0.570913" stroke-miterlimit="10"/>
<path d="M59.8675 178.285H0.685608V237.491H59.8675V178.285Z" stroke="black" stroke-width="0.570913" stroke-miterlimit="10"/>
<path d="M119.031 178.285H59.8495V237.491H119.031V178.285Z" stroke="black" stroke-width="0.570913" stroke-miterlimit="10"/>
<path d="M178.213 178.285H119.031V237.491H178.213V178.285Z" stroke="black" stroke-width="0.570913" stroke-miterlimit="10"/>
<path d="M237.395 178.285H178.213V237.491H237.395V178.285Z" stroke="black" stroke-width="0.570913" stroke-miterlimit="10"/>
<path d="M296.577 178.285H237.395V237.491H296.577V178.285Z" stroke="black" stroke-width="0.570913" stroke-miterlimit="10"/>
<path d="M355.76 178.285H296.578V237.491H355.76V178.285Z" stroke="black" stroke-width="0.570913" stroke-miterlimit="10"/>
<path d="M414.942 178.285H355.76V237.491H414.942V178.285Z" stroke="black" stroke-width="0.570913" stroke-miterlimit="10"/>
<path d="M59.8675 237.491H0.685608V296.697H59.8675V237.491Z" stroke="black" stroke-width="0.570913" stroke-miterlimit="10"/>
<path d="M119.031 237.491H59.8495V296.697H119.031V237.491Z" stroke="black" stroke-width="0.570913" stroke-miterlimit="10"/>
<path d="M178.213 237.491H119.031V296.697H178.213V237.491Z" stroke="black" stroke-width="0.570913" stroke-miterlimit="10"/>
<path d="M237.395 237.491H178.213V296.697H237.395V237.491Z" stroke="black" stroke-width="0.570913" stroke-miterlimit="10"/>
<path d="M296.577 237.491H237.395V296.697H296.577V237.491Z" stroke="black" stroke-width="0.570913" stroke-miterlimit="10"/>
<path d="M355.76 237.491H296.578V296.697H355.76V237.491Z" stroke="black" stroke-width="0.570913" stroke-miterlimit="10"/>
<path d="M414.942 237.491H355.76V296.697H414.942V237.491Z" stroke="black" stroke-width="0.570913" stroke-miterlimit="10"/>
<path d="M59.8675 296.697H0.685608V355.903H59.8675V296.697Z" stroke="black" stroke-width="0.570913" stroke-miterlimit="10"/>
<path d="M119.031 296.697H59.8495V355.903H119.031V296.697Z" stroke="black" stroke-width="0.570913" stroke-miterlimit="10"/>
<path d="M178.213 296.697H119.031V355.903H178.213V296.697Z" stroke="black" stroke-width="0.570913" stroke-miterlimit="10"/>
<path d="M237.395 296.697H178.213V355.903H237.395V296.697Z" stroke="black" stroke-width="0.570913" stroke-miterlimit="10"/>
<path d="M296.577 296.697H237.395V355.903H296.577V296.697Z" stroke="black" stroke-width="0.570913" stroke-miterlimit="10"/>
<path d="M355.76 296.697H296.578V355.903H355.76V296.697Z" stroke="black" stroke-width="0.570913" stroke-miterlimit="10"/>
<path d="M414.942 296.697H355.76V355.903H414.942V296.697Z" stroke="black" stroke-width="0.570913" stroke-miterlimit="10"/>
<path d="M59.8675 355.903H0.685608V415.109H59.8675V355.903Z" stroke="black" stroke-width="0.570913" stroke-miterlimit="10"/>
<path d="M119.031 355.903H59.8495V415.109H119.031V355.903Z" stroke="black" stroke-width="0.570913" stroke-miterlimit="10"/>
<path d="M178.213 355.903H119.031V415.109H178.213V355.903Z" stroke="black" stroke-width="0.570913" stroke-miterlimit="10"/>
<path d="M237.395 355.903H178.213V415.109H237.395V355.903Z" stroke="black" stroke-width="0.570913" stroke-miterlimit="10"/>
<path d="M296.577 355.903H237.395V415.109H296.577V355.903Z" stroke="black" stroke-width="0.570913" stroke-miterlimit="10"/>
<path d="M355.76 355.903H296.578V415.108H355.76V355.903Z" stroke="black" stroke-width="0.570913" stroke-miterlimit="10"/>
<path d="M414.942 355.903H355.76V415.108H414.942V355.903Z" stroke="black" stroke-width="0.570913" stroke-miterlimit="10"/>
<path d="M59.8675 415.109H0.685608V474.315H59.8675V415.109Z" stroke="black" stroke-width="0.570913" stroke-miterlimit="10"/>
<path d="M119.031 415.109H59.8495V474.315H119.031V415.109Z" stroke="black" stroke-width="0.570913" stroke-miterlimit="10"/>
<path d="M178.213 415.109H119.031V474.315H178.213V415.109Z" stroke="black" stroke-width="0.570913" stroke-miterlimit="10"/>
<path d="M237.395 415.109H178.213V474.315H237.395V415.109Z" stroke="black" stroke-width="0.570913" stroke-miterlimit="10"/>
<path d="M296.577 415.109H237.395V474.315H296.577V415.109Z" stroke="black" stroke-width="0.570913" stroke-miterlimit="10"/>
<path d="M355.76 415.109H296.578V474.315H355.76V415.109Z" stroke="black" stroke-width="0.570913" stroke-miterlimit="10"/>
<path d="M414.942 415.109H355.76V474.315H414.942V415.109Z" stroke="black" stroke-width="0.570913" stroke-miterlimit="10"/>
<circle cx="356" cy="162" r="292" fill="url(#paint0_radial_1_717)" style="mix-blend-mode:multiply"/>
</g>
<defs>
<radialGradient id="paint0_radial_1_717" cx="0" cy="0" r="1" gradientUnits="userSpaceOnUse" gradientTransform="translate(356 162) rotate(90) scale(292)">
<stop stop-color="#FFF6A4" stop-opacity="0.44"/>
<stop offset="1" stop-color="#FFFBDC" stop-opacity="0"/>
</radialGradient>
<clipPath id="clip0_1_717">
<rect width="415.625" height="475" fill="white"/>
</clipPath>
</defs>
</svg>
