<svg width="345" height="475" viewBox="0 0 345 475" fill="none" xmlns="http://www.w3.org/2000/svg">
<g clip-path="url(#clip0_1_1398)">
<path d="M48.0315 0.685181H-11.1504V59.8911H48.0315V0.685181Z" stroke="black" stroke-width="0.570913" stroke-miterlimit="10"/>
<path d="M107.213 0.685181H48.0312V59.8911H107.213V0.685181Z" stroke="black" stroke-width="0.570913" stroke-miterlimit="10"/>
<path d="M166.395 0.685181H107.213V59.8911H166.395V0.685181Z" stroke="black" stroke-width="0.570913" stroke-miterlimit="10"/>
<path d="M225.577 0.685181H166.395V59.8911H225.577V0.685181Z" stroke="black" stroke-width="0.570913" stroke-miterlimit="10"/>
<path d="M284.76 0.685303H225.578V59.8912H284.76V0.685303Z" stroke="black" stroke-width="0.570913" stroke-miterlimit="10"/>
<path d="M343.942 0.685303H284.76V59.8912H343.942V0.685303Z" stroke="black" stroke-width="0.570913" stroke-miterlimit="10"/>
<path d="M48.0315 59.873H-11.1504V119.079H48.0315V59.873Z" stroke="black" stroke-width="0.570913" stroke-miterlimit="10"/>
<path d="M107.213 59.873H48.0312V119.079H107.213V59.873Z" stroke="black" stroke-width="0.570913" stroke-miterlimit="10"/>
<path d="M166.395 59.873H107.213V119.079H166.395V59.873Z" stroke="black" stroke-width="0.570913" stroke-miterlimit="10"/>
<path d="M225.577 59.873H166.395V119.079H225.577V59.873Z" stroke="black" stroke-width="0.570913" stroke-miterlimit="10"/>
<path d="M284.76 59.873H225.578V119.079H284.76V59.873Z" stroke="black" stroke-width="0.570913" stroke-miterlimit="10"/>
<path d="M343.942 59.873H284.76V119.079H343.942V59.873Z" stroke="black" stroke-width="0.570913" stroke-miterlimit="10"/>
<path d="M48.0315 119.079H-11.1504V178.285H48.0315V119.079Z" stroke="black" stroke-width="0.570913" stroke-miterlimit="10"/>
<path d="M107.213 119.079H48.0312V178.285H107.213V119.079Z" stroke="black" stroke-width="0.570913" stroke-miterlimit="10"/>
<path d="M166.395 119.079H107.213V178.285H166.395V119.079Z" stroke="black" stroke-width="0.570913" stroke-miterlimit="10"/>
<path d="M225.577 119.079H166.395V178.285H225.577V119.079Z" stroke="black" stroke-width="0.570913" stroke-miterlimit="10"/>
<path d="M284.76 119.079H225.578V178.285H284.76V119.079Z" stroke="black" stroke-width="0.570913" stroke-miterlimit="10"/>
<path d="M343.942 119.079H284.76V178.285H343.942V119.079Z" stroke="black" stroke-width="0.570913" stroke-miterlimit="10"/>
<path d="M48.0315 178.285H-11.1504V237.491H48.0315V178.285Z" stroke="black" stroke-width="0.570913" stroke-miterlimit="10"/>
<path d="M107.213 178.285H48.0312V237.491H107.213V178.285Z" stroke="black" stroke-width="0.570913" stroke-miterlimit="10"/>
<path d="M166.395 178.285H107.213V237.491H166.395V178.285Z" stroke="black" stroke-width="0.570913" stroke-miterlimit="10"/>
<path d="M225.577 178.285H166.395V237.491H225.577V178.285Z" stroke="black" stroke-width="0.570913" stroke-miterlimit="10"/>
<path d="M284.76 178.285H225.578V237.491H284.76V178.285Z" stroke="black" stroke-width="0.570913" stroke-miterlimit="10"/>
<path d="M343.942 178.285H284.76V237.491H343.942V178.285Z" stroke="black" stroke-width="0.570913" stroke-miterlimit="10"/>
<path d="M48.0315 237.491H-11.1504V296.697H48.0315V237.491Z" stroke="black" stroke-width="0.570913" stroke-miterlimit="10"/>
<path d="M107.213 237.491H48.0312V296.697H107.213V237.491Z" stroke="black" stroke-width="0.570913" stroke-miterlimit="10"/>
<path d="M166.395 237.491H107.213V296.697H166.395V237.491Z" stroke="black" stroke-width="0.570913" stroke-miterlimit="10"/>
<path d="M225.577 237.491H166.395V296.697H225.577V237.491Z" stroke="black" stroke-width="0.570913" stroke-miterlimit="10"/>
<path d="M284.76 237.491H225.578V296.697H284.76V237.491Z" stroke="black" stroke-width="0.570913" stroke-miterlimit="10"/>
<path d="M343.942 237.491H284.76V296.697H343.942V237.491Z" stroke="black" stroke-width="0.570913" stroke-miterlimit="10"/>
<path d="M48.0315 296.697H-11.1504V355.903H48.0315V296.697Z" stroke="black" stroke-width="0.570913" stroke-miterlimit="10"/>
<path d="M107.213 296.697H48.0312V355.903H107.213V296.697Z" stroke="black" stroke-width="0.570913" stroke-miterlimit="10"/>
<path d="M166.395 296.697H107.213V355.903H166.395V296.697Z" stroke="black" stroke-width="0.570913" stroke-miterlimit="10"/>
<path d="M225.577 296.697H166.395V355.903H225.577V296.697Z" stroke="black" stroke-width="0.570913" stroke-miterlimit="10"/>
<path d="M284.76 296.697H225.578V355.903H284.76V296.697Z" stroke="black" stroke-width="0.570913" stroke-miterlimit="10"/>
<path d="M343.942 296.697H284.76V355.903H343.942V296.697Z" stroke="black" stroke-width="0.570913" stroke-miterlimit="10"/>
<path d="M48.0315 355.903H-11.1504V415.108H48.0315V355.903Z" stroke="black" stroke-width="0.570913" stroke-miterlimit="10"/>
<path d="M107.213 355.903H48.0312V415.108H107.213V355.903Z" stroke="black" stroke-width="0.570913" stroke-miterlimit="10"/>
<path d="M166.395 355.903H107.213V415.108H166.395V355.903Z" stroke="black" stroke-width="0.570913" stroke-miterlimit="10"/>
<path d="M225.577 355.903H166.395V415.108H225.577V355.903Z" stroke="black" stroke-width="0.570913" stroke-miterlimit="10"/>
<path d="M284.76 355.903H225.578V415.108H284.76V355.903Z" stroke="black" stroke-width="0.570913" stroke-miterlimit="10"/>
<path d="M343.942 355.903H284.76V415.108H343.942V355.903Z" stroke="black" stroke-width="0.570913" stroke-miterlimit="10"/>
<path d="M48.0315 415.109H-11.1504V474.315H48.0315V415.109Z" stroke="black" stroke-width="0.570913" stroke-miterlimit="10"/>
<path d="M107.213 415.109H48.0312V474.315H107.213V415.109Z" stroke="black" stroke-width="0.570913" stroke-miterlimit="10"/>
<path d="M166.395 415.109H107.213V474.315H166.395V415.109Z" stroke="black" stroke-width="0.570913" stroke-miterlimit="10"/>
<path d="M225.577 415.109H166.395V474.315H225.577V415.109Z" stroke="black" stroke-width="0.570913" stroke-miterlimit="10"/>
<path d="M284.76 415.109H225.578V474.315H284.76V415.109Z" stroke="black" stroke-width="0.570913" stroke-miterlimit="10"/>
<path d="M343.942 415.109H284.76V474.315H343.942V415.109Z" stroke="black" stroke-width="0.570913" stroke-miterlimit="10"/>
<circle cx="285" cy="162" r="292" fill="url(#paint0_radial_1_1398)" style="mix-blend-mode:multiply"/>
</g>
<defs>
<radialGradient id="paint0_radial_1_1398" cx="0" cy="0" r="1" gradientUnits="userSpaceOnUse" gradientTransform="translate(285 162) rotate(90) scale(292)">
<stop stop-color="#FFF6A4" stop-opacity="0.44"/>
<stop offset="1" stop-color="#FFFBDC" stop-opacity="0"/>
</radialGradient>
<clipPath id="clip0_1_1398">
<rect width="415.625" height="475" fill="white" transform="translate(-71)"/>
</clipPath>
</defs>
</svg>
