<svg width="94" height="71" viewBox="0 0 94 71" fill="none" xmlns="http://www.w3.org/2000/svg">
<path d="M30.5368 1H64.0859V35.37H30.5368V1Z" stroke="black" stroke-opacity="0.24" stroke-width="1.39848" stroke-miterlimit="10"/>
<path d="M30.5368 35.3691H64.0859V69.7392H30.5368V35.3691Z" stroke="black" stroke-opacity="0.24" stroke-width="1.39848" stroke-miterlimit="10"/>
<path d="M46.8262 12C72.1383 12 92.6523 34.7836 92.6523 34.7836C92.6523 34.7836 72.1383 57.5673 46.8262 57.5673" fill="#F0F0FF"/>
<path d="M46.8262 12C72.1383 12 92.6523 34.7836 92.6523 34.7836C92.6523 34.7836 72.1383 57.5673 46.8262 57.5673" stroke="#474784" stroke-width="0.808696" stroke-miterlimit="10" stroke-linecap="round" stroke-linejoin="round"/>
<path d="M46.8261 57.5606C21.5139 57.5606 1 34.7769 1 34.7769C1 34.7769 21.5139 12 46.8261 12" fill="#F0F0FF"/>
<path d="M46.8261 57.5606C21.5139 57.5606 1 34.7769 1 34.7769C1 34.7769 21.5139 12 46.8261 12" stroke="#474784" stroke-width="0.808696" stroke-miterlimit="10" stroke-linecap="round" stroke-linejoin="round"/>
<path d="M46.8273 51.2447C55.946 51.2447 63.3381 43.8747 63.3381 34.7835C63.3381 25.6922 55.946 18.3223 46.8273 18.3223C37.7086 18.3223 30.3164 25.6922 30.3164 34.7835C30.3164 43.8747 37.7086 51.2447 46.8273 51.2447Z" fill="#48BCF1" stroke="#474784" stroke-width="0.808696" stroke-miterlimit="10" stroke-linecap="round" stroke-linejoin="round"/>
<path d="M48.1742 33.2111L49.8387 26.2302C48.8953 25.901 47.8844 25.7129 46.8263 25.7129C41.799 25.7129 37.7285 29.7711 37.7285 34.7833C37.7285 39.7956 41.799 43.8538 46.8263 43.8538C51.8537 43.8538 55.9242 39.7956 55.9242 34.7833C55.9242 33.0297 55.4187 31.4038 54.5561 30.013L48.1742 33.2111Z" fill="#474784"/>
</svg>
