<svg width="38" height="38" viewBox="0 0 38 38" fill="none" xmlns="http://www.w3.org/2000/svg">
<path d="M37.7322 18.6219C37.7322 8.33159 29.4006 0 19.1102 0C8.81987 0 0.488281 8.33159 0.488281 18.6219C0.488281 27.9191 7.30253 35.6162 16.2135 37.0232V24.0016H11.4683V18.6219H16.2135V14.5113C16.2135 9.84894 18.9723 7.28325 23.2208 7.28325C25.2624 7.28325 27.3866 7.64189 27.3866 7.64189V12.2215H25.0416C22.7243 12.2215 22.007 13.6561 22.007 15.1183V18.6219H27.1659L26.3383 24.0016H22.007V37.0232C30.9179 35.6162 37.7322 27.9191 37.7322 18.6219Z" fill="black"/>
<path d="M26.3663 24.0016L27.1939 18.6219H22.0074V15.1182C22.0074 13.656 22.7247 12.2215 25.0421 12.2215H27.3871V7.64185C27.3871 7.64185 25.2628 7.2832 23.2213 7.2832C18.9727 7.2832 16.2139 9.84889 16.2139 14.5113V18.6219H11.4688V24.0016H16.2139V37.0231C17.1519 37.1611 18.1451 37.2438 19.1106 37.2438C20.1038 37.2438 21.0694 37.1611 22.0074 37.0231V24.0016H26.3663Z" fill="white"/>
</svg>
