<svg width="155" height="179" viewBox="0 0 155 179" fill="none" xmlns="http://www.w3.org/2000/svg">
<path d="M53.7129 118.64L53.7126 118.64C50.2748 122.552 50.5352 126.28 50.7826 129.822L50.7844 129.849C51.0315 133.386 51.2561 136.737 48.1029 140.32C44.9495 143.903 41.5976 144.109 38.059 144.316L38.032 144.318C34.4887 144.525 30.7607 144.743 27.3229 148.65C23.8849 152.557 24.1451 156.282 24.3925 159.824L24.3944 159.851C24.6415 163.389 24.8661 166.742 21.7126 170.33C18.4732 174.016 15.1015 176.048 11.3186 177.167C7.59701 178.268 3.45796 178.491 -1.39752 178.5C-1.40405 178.469 -1.41088 178.435 -1.41793 178.397C-1.47556 178.083 -1.53203 177.601 -1.58574 176.95C-1.69273 175.652 -1.78442 173.74 -1.86195 171.296C-2.01692 166.41 -2.11443 159.426 -2.16763 151.039C-2.27402 134.268 -2.20311 111.904 -2.06124 89.5385C-1.91937 67.1732 -1.70657 44.8077 -1.52924 28.0334C-1.44057 19.6463 -1.36077 12.657 -1.30313 7.7646C-1.27432 5.31838 -1.25104 3.39636 -1.23497 2.08591L-1.21648 0.589841L-1.21623 0.570312H153.508V20.4598C150.391 23.9088 147.081 24.1118 143.589 24.3162L143.562 24.3177C140.019 24.5251 136.291 24.7433 132.853 28.65C129.415 32.5568 129.675 36.2824 129.923 39.8232L129.924 39.8502C130.171 43.3863 130.396 46.7368 127.243 50.32C124.09 53.9034 120.735 54.109 117.195 54.3162L117.168 54.3177C113.624 54.5251 109.896 54.7432 106.463 58.6503C103.03 62.5571 103.29 66.2824 103.538 69.8231L103.539 69.8502C103.786 73.3863 104.011 76.7369 100.863 80.32C97.7146 83.8982 94.3632 84.1015 90.8242 84.3074L90.8007 84.3088C87.2564 84.515 83.5267 84.7319 80.0926 88.6403C76.6598 92.5471 76.9201 96.2724 77.1675 99.8131L77.1694 99.8402C77.4165 103.376 77.6411 106.727 74.4929 110.31C71.3395 113.893 67.9876 114.099 64.449 114.306L64.422 114.308C60.8787 114.515 57.1507 114.733 53.7129 118.64ZM-1.34259 178.7C-1.34263 178.7 -1.34309 178.699 -1.34389 178.697C-1.34297 178.699 -1.34255 178.7 -1.34259 178.7Z" fill="white" stroke="black"/>
</svg>
