<svg width="155" height="179" viewBox="0 0 155 179" fill="none" xmlns="http://www.w3.org/2000/svg">
<path d="M100.295 60.36L100.295 60.3597C103.733 56.4479 103.473 52.7199 103.225 49.1777L103.223 49.1511C102.976 45.6136 102.752 42.2632 105.905 38.68C109.058 35.0966 112.41 34.891 115.949 34.6838L115.976 34.6822C119.519 34.4749 123.247 34.2567 126.685 30.35C130.123 26.4432 129.863 22.7178 129.615 19.1759L129.613 19.1486C129.366 15.6112 129.142 12.2581 132.295 8.66975C135.535 4.9837 138.906 2.95169 142.689 1.83292C146.411 0.732269 150.55 0.508835 155.405 0.499969C155.412 0.530685 155.419 0.565094 155.426 0.603439C155.483 0.916702 155.54 1.39891 155.594 2.05025C155.701 3.34772 155.792 5.25954 155.87 7.70395C156.025 12.59 156.122 19.5743 156.175 27.9607C156.282 44.7321 156.211 67.0957 156.069 89.4615C155.927 111.827 155.714 134.192 155.537 150.967C155.448 159.354 155.369 166.343 155.311 171.235C155.282 173.682 155.259 175.604 155.243 176.914L155.224 178.41L155.224 178.43H0.499603V158.54C3.61664 155.091 6.92677 154.888 10.4188 154.684L10.4458 154.682C13.9891 154.475 17.7171 154.257 21.155 150.35C24.593 146.443 24.3327 142.718 24.0853 139.177L24.0834 139.15C23.8363 135.614 23.6117 132.263 26.765 128.68C29.9183 125.097 33.2726 124.891 36.8126 124.684L36.8395 124.682C40.3839 124.475 44.1122 124.257 47.5452 120.35C50.978 116.443 50.7177 112.718 50.4703 109.177L50.4684 109.15C50.2213 105.614 49.9967 102.263 53.145 98.68C56.2932 95.1018 59.6446 94.8985 63.1836 94.6926L63.2071 94.6912C66.7515 94.485 70.4811 94.2681 73.9152 90.3597C77.348 86.4529 77.0877 82.7276 76.8403 79.1869L76.8384 79.1598C76.5913 75.6237 76.3667 72.2731 79.515 68.69C82.6684 65.1066 86.0202 64.901 89.5588 64.6938L89.5858 64.6923C93.1291 64.4849 96.8571 64.2667 100.295 60.36ZM155.35 0.299942C155.35 0.299973 155.351 0.300842 155.352 0.302704C155.351 0.300888 155.35 0.299911 155.35 0.299942Z" fill="white" stroke="black"/>
</svg>
