<svg width="94" height="47" viewBox="0 0 94 47" fill="none" xmlns="http://www.w3.org/2000/svg">
<path d="M46.8262 1C72.1383 1 92.6523 23.7836 92.6523 23.7836C92.6523 23.7836 72.1383 46.5673 46.8262 46.5673" fill="#F0F0FF"/>
<path d="M46.8262 1C72.1383 1 92.6523 23.7836 92.6523 23.7836C92.6523 23.7836 72.1383 46.5673 46.8262 46.5673" stroke="#474784" stroke-width="0.808696" stroke-miterlimit="10" stroke-linecap="round" stroke-linejoin="round"/>
<path d="M46.8261 46.5606C21.5139 46.5606 1 23.7769 1 23.7769C1 23.7769 21.5139 1 46.8261 1" fill="#F0F0FF"/>
<path d="M46.8261 46.5606C21.5139 46.5606 1 23.7769 1 23.7769C1 23.7769 21.5139 1 46.8261 1" stroke="#474784" stroke-width="0.808696" stroke-miterlimit="10" stroke-linecap="round" stroke-linejoin="round"/>
<path d="M46.8273 40.2447C55.946 40.2447 63.3381 32.8747 63.3381 23.7835C63.3381 14.6922 55.946 7.32227 46.8273 7.32227C37.7086 7.32227 30.3164 14.6922 30.3164 23.7835C30.3164 32.8747 37.7086 40.2447 46.8273 40.2447Z" fill="#48BCF1" stroke="#474784" stroke-width="0.808696" stroke-miterlimit="10" stroke-linecap="round" stroke-linejoin="round"/>
<path d="M48.1739 22.2115L49.8385 15.2306C48.895 14.9014 47.8841 14.7133 46.8261 14.7133C41.7987 14.7133 37.7283 18.7714 37.7283 23.7837C37.7283 28.796 41.7987 32.8542 46.8261 32.8542C51.8535 32.8542 55.9239 28.796 55.9239 23.7837C55.9239 22.0301 55.4185 20.4041 54.5559 19.0133L48.1739 22.2115Z" fill="#474784"/>
</svg>
