<svg width="38" height="38" viewBox="0 0 38 38" fill="none" xmlns="http://www.w3.org/2000/svg">
<rect width="38" height="37.475" rx="18.7375" fill="#EDEDED"/>
<path d="M11.5 27.475C11.0833 27.475 10.729 27.329 10.437 27.037C10.145 26.745 9.99934 26.391 10 25.975V24.075L14 20.525V27.475H11.5ZM15 27.475V23.475H23V27.475H15ZM24 27.475V19.275L19.725 15.475L22.75 12.8L27.5 17.025C27.6667 17.175 27.7917 17.346 27.875 17.538C27.9583 17.73 28 17.934 28 18.15V25.975C28 26.3917 27.854 26.746 27.562 27.038C27.27 27.33 26.916 27.4757 26.5 27.475H24ZM10 22.725V18.15C10 17.9333 10.0417 17.725 10.125 17.525C10.2083 17.325 10.3333 17.1583 10.5 17.025L18 10.375C18.1333 10.2417 18.2877 10.146 18.463 10.088C18.6383 10.03 18.8173 10.0007 19 10C19.1833 10 19.3623 10.0293 19.537 10.088C19.7117 10.1467 19.866 10.2423 20 10.375L22 12.15L10 22.725Z" fill="#0BA7FF"/>
</svg>
