<svg width="79" height="79" viewBox="0 0 79 79" fill="none" xmlns="http://www.w3.org/2000/svg">
<rect x="0.5" y="0.5" width="77.3467" height="77.3467" fill="#4BBEFF"/>
<path d="M39.1732 67.4584C54.7966 67.4584 67.4618 54.7931 67.4618 39.1698C67.4618 23.5464 54.7966 10.8811 39.1732 10.8811C23.5498 10.8811 10.8845 23.5464 10.8845 39.1698C10.8845 54.7931 23.5498 67.4584 39.1732 67.4584Z" stroke="black" stroke-miterlimit="10"/>
<path d="M56.0876 56.0867C65.4286 46.7457 65.4286 31.601 56.0876 22.26C46.7467 12.919 31.602 12.919 22.261 22.26C12.92 31.601 12.92 46.7457 22.261 56.0867C31.6019 65.4276 46.7467 65.4276 56.0876 56.0867Z" stroke="black" stroke-miterlimit="10"/>
<path d="M50.3911 35.8627H42.4727V27.9443C41.5919 28.7215 40.4348 29.1878 39.174 29.1878C37.9047 29.1878 36.7562 28.7129 35.8754 27.9443V35.8627H27.957C28.7342 36.7435 29.2005 37.9006 29.2005 39.1614C29.2005 40.4221 28.7256 41.5792 27.957 42.46H35.8754V50.3784C36.7562 49.6012 37.9133 49.1349 39.174 49.1349C40.4434 49.1349 41.5919 49.6099 42.4727 50.3784V42.46H50.3911C49.6139 41.5792 49.1476 40.4221 49.1476 39.1614C49.1476 37.9006 49.6225 36.7522 50.3911 35.8627Z" stroke="black" stroke-miterlimit="10"/>
<path d="M42.4828 27.953C43.5276 27.0376 44.1925 25.6906 44.1925 24.1881C44.1925 21.4248 41.9474 19.1797 39.1842 19.1797C36.4209 19.1797 34.1758 21.4248 34.1758 24.1881C34.1758 25.6906 34.8407 27.0376 35.8855 27.953" stroke="black" stroke-miterlimit="10"/>
<path d="M35.8758 50.387C34.8309 51.3023 34.166 52.6494 34.166 54.1519C34.166 56.9151 36.4111 59.1602 39.1744 59.1602C41.9376 59.1602 44.1827 56.9151 44.1827 54.1519C44.1827 52.6494 43.5178 51.3023 42.473 50.387" stroke="black" stroke-miterlimit="10"/>
<path d="M50.3906 42.4686C51.3059 43.5135 52.653 44.1784 54.1556 44.1784C56.9188 44.1784 59.1639 41.9332 59.1639 39.17C59.1639 36.4068 56.9188 34.1616 54.1556 34.1616C52.653 34.1616 51.3059 34.8265 50.3906 35.8714" stroke="black" stroke-miterlimit="10"/>
<path d="M27.9569 35.8627C27.0416 34.8179 25.6945 34.153 24.192 34.153C21.4287 34.153 19.1836 36.3981 19.1836 39.1613C19.1836 41.9246 21.4287 44.1697 24.192 44.1697C25.6945 44.1697 27.0416 43.5048 27.9569 42.4599" stroke="black" stroke-miterlimit="10"/>
<rect x="0.5" y="0.5" width="77.3467" height="77.3467" stroke="black"/>
</svg>
