<svg width="79" height="79" viewBox="0 0 79 79" fill="none" xmlns="http://www.w3.org/2000/svg">
<rect x="0.5" y="0.5" width="77.3467" height="77.3467" fill="#4BFFBE"/>
<path d="M54.9709 11.0918H22.9109L6.88086 38.8591L22.9109 66.618H54.9709L71.001 38.8591L54.9709 11.0918Z" stroke="black" stroke-miterlimit="10"/>
<path d="M52.3855 15.5704H25.497L12.0527 38.8592L25.497 62.1395H52.3855L65.8298 38.8592L52.3855 15.5704Z" stroke="black" stroke-miterlimit="10"/>
<path d="M46.4192 39.6371C50.5507 35.5055 50.5507 28.807 46.4192 24.6754C42.2876 20.5438 35.589 20.5438 31.4574 24.6754C27.3259 28.807 27.3259 35.5055 31.4574 39.6371C35.589 43.7687 42.2876 43.7687 46.4192 39.6371Z" stroke="black" stroke-miterlimit="10"/>
<path d="M46.4192 53.0309C50.5507 48.8993 50.5507 42.2007 46.4192 38.0692C42.2876 33.9376 35.589 33.9376 31.4574 38.0692C27.3259 42.2007 27.3259 48.8993 31.4574 53.0309C35.589 57.1625 42.2876 57.1625 46.4192 53.0309Z" stroke="black" stroke-miterlimit="10"/>
<path d="M55.9342 41.3006C57.284 35.6154 53.7694 29.9124 48.0841 28.5627C42.3989 27.213 36.696 30.7276 35.3462 36.4128C33.9965 42.098 37.5111 47.801 43.1963 49.1507C48.8816 50.5004 54.5845 46.9858 55.9342 41.3006Z" stroke="black" stroke-miterlimit="10"/>
<path d="M42.5397 41.3006C43.8894 35.6154 40.3748 29.9124 34.6896 28.5627C29.0044 27.213 23.3014 30.7276 21.9517 36.4128C20.602 42.098 24.1166 47.801 29.8018 49.1507C35.487 50.5004 41.19 46.9858 42.5397 41.3006Z" stroke="black" stroke-miterlimit="10"/>
<rect x="0.5" y="0.5" width="77.3467" height="77.3467" stroke="black"/>
</svg>
