<svg width="79" height="79" viewBox="0 0 79 79" fill="none" xmlns="http://www.w3.org/2000/svg">
<rect x="0.5" y="0.5" width="77.3467" height="77.3467" fill="#C64BFF"/>
<path d="M68.15 11H11V68.15H68.15V11Z" stroke="black" stroke-miterlimit="10"/>
<path d="M34.09 11.48C34.09 24.23 23.75 34.57 11 34.57" stroke="black" stroke-miterlimit="10"/>
<path d="M45.0586 67.6701C45.0586 54.9201 55.3986 44.5801 68.1486 44.5801" stroke="black" stroke-miterlimit="10"/>
<path d="M68.1486 34.57C55.3986 34.57 45.0586 24.23 45.0586 11.48" stroke="black" stroke-miterlimit="10"/>
<path d="M11 44.58C23.75 44.58 34.09 54.92 34.09 67.67" stroke="black" stroke-miterlimit="10"/>
<path d="M56.1349 43.5063C58.3113 34.3568 52.6584 25.1752 43.5088 22.9988C34.3592 20.8224 25.1777 26.4753 23.0013 35.6249C20.8249 44.7744 26.4777 53.956 35.6273 56.1324C44.7769 58.3088 53.9584 52.6559 56.1349 43.5063Z" stroke="black" stroke-miterlimit="10"/>
<path d="M51.4701 42.3947C53.0291 35.828 48.9696 29.2409 42.4029 27.6819C35.8362 26.1229 29.249 30.1824 27.69 36.7491C26.131 43.3158 30.1905 49.903 36.7572 51.462C43.3239 53.021 49.9111 48.9614 51.4701 42.3947Z" stroke="black" stroke-miterlimit="10"/>
<rect x="0.5" y="0.5" width="77.3467" height="77.3467" stroke="black"/>
</svg>
