<svg width="79" height="79" viewBox="0 0 79 79" fill="none" xmlns="http://www.w3.org/2000/svg">
<path d="M0.5 0.5H54.3467C67.3254 0.5 77.8467 11.0213 77.8467 24V77.8467H0.5V0.5Z" fill="#C6FF4B"/>
<path d="M51.41 11H27.73L11 27.74V51.42L27.73 68.15H51.41L68.15 51.42V27.74L51.41 11Z" stroke="black" stroke-miterlimit="10"/>
<path d="M44.7105 27.98L27.9805 44.72V68.15H51.4105L68.1505 51.42V27.98H44.7105Z" stroke="black" stroke-miterlimit="10"/>
<path d="M34.43 51.17L51.17 34.44V11H27.73L11 27.74V51.17H34.43Z" stroke="black" stroke-miterlimit="10"/>
<path d="M51.17 44.72L34.43 27.98H11V51.42L27.73 68.15H51.17V44.72Z" stroke="black" stroke-miterlimit="10"/>
<path d="M27.9805 34.44L44.7105 51.17H68.1505V27.74L51.4105 11H27.9805V34.44Z" stroke="black" stroke-miterlimit="10"/>
<path d="M0.5 0.5H54.3467C67.3254 0.5 77.8467 11.0213 77.8467 24V77.8467H0.5V0.5Z" stroke="black"/>
</svg>
