<svg width="79" height="79" viewBox="0 0 79 79" fill="none" xmlns="http://www.w3.org/2000/svg">
<rect x="0.5" y="0.5" width="77.3467" height="77.3467" fill="#FF4BCD"/>
<path d="M38.8409 44.86L23.1309 72.07H54.5509L38.8409 44.86Z" stroke="black" stroke-miterlimit="10"/>
<path d="M38.8409 33.57L54.5509 6.35999H23.1309L38.8409 33.57Z" stroke="black" stroke-miterlimit="10"/>
<path d="M33.2005 39.22L5.98047 23.5V54.93L33.2005 39.22Z" stroke="black" stroke-miterlimit="10"/>
<path d="M44.4805 39.22L71.7005 54.93V23.5L44.4805 39.22Z" stroke="black" stroke-miterlimit="10"/>
<path d="M38.8408 33.3351L32.9648 39.2111L38.8408 45.0871L44.7168 39.2111L38.8408 33.3351Z" stroke="black" stroke-miterlimit="10"/>
<path d="M35.8997 36.2799L15.4297 15.8099" stroke="black" stroke-miterlimit="10"/>
<path d="M62.2513 62.62L41.7812 42.15" stroke="black" stroke-miterlimit="10"/>
<path d="M41.7812 36.2799L62.2513 15.8099" stroke="black" stroke-miterlimit="10"/>
<path d="M15.4297 62.62L35.8997 42.15" stroke="black" stroke-miterlimit="10"/>
<rect x="0.5" y="0.5" width="77.3467" height="77.3467" stroke="black"/>
</svg>
