<svg width="38" height="38" viewBox="0 0 38 38" fill="none" xmlns="http://www.w3.org/2000/svg">
<path d="M18.6219 37.2439C28.9065 37.2439 37.2439 28.9065 37.2439 18.6219C37.2439 8.33733 28.9065 0 18.6219 0C8.33733 0 0 8.33733 0 18.6219C0 28.9065 8.33733 37.2439 18.6219 37.2439Z" fill="black"/>
<path fill-rule="evenodd" clip-rule="evenodd" d="M14.465 8.15877C15.638 8.10477 16.012 8.09277 19 8.09277C21.988 8.09277 22.362 8.10577 23.534 8.15877C24.706 8.21177 25.506 8.39877 26.206 8.66977C26.939 8.94677 27.604 9.37977 28.154 9.93977C28.714 10.4888 29.146 11.1528 29.422 11.8868C29.694 12.5868 29.88 13.3868 29.934 14.5568C29.988 15.7318 30 16.1058 30 19.0928C30 22.0808 29.987 22.4548 29.934 23.6278C29.881 24.7978 29.694 25.5978 29.422 26.2978C29.146 27.0319 28.7133 27.697 28.154 28.2468C27.604 28.8068 26.939 29.2388 26.206 29.5148C25.506 29.7868 24.706 29.9728 23.536 30.0268C22.362 30.0808 21.988 30.0928 19 30.0928C16.012 30.0928 15.638 30.0798 14.465 30.0268C13.295 29.9738 12.495 29.7868 11.795 29.5148C11.0609 29.2387 10.3958 28.806 9.846 28.2468C9.28638 27.6974 8.85331 27.0327 8.577 26.2988C8.306 25.5988 8.12 24.7988 8.066 23.6288C8.012 22.4538 8 22.0798 8 19.0928C8 16.1048 8.013 15.7308 8.066 14.5588C8.119 13.3868 8.306 12.5868 8.577 11.8868C8.85372 11.1529 9.28712 10.4881 9.847 9.93877C10.396 9.37927 11.0605 8.94622 11.794 8.66977C12.494 8.39877 13.295 8.21277 14.465 8.15877ZM23.445 10.1388C22.285 10.0858 21.937 10.0748 19 10.0748C16.063 10.0748 15.715 10.0858 14.555 10.1388C13.482 10.1878 12.9 10.3668 12.512 10.5178C11.999 10.7178 11.632 10.9548 11.247 11.3398C10.882 11.6948 10.6012 12.1271 10.425 12.6048C10.274 12.9928 10.095 13.5748 10.046 14.6478C9.993 15.8078 9.982 16.1558 9.982 19.0928C9.982 22.0298 9.993 22.3778 10.046 23.5378C10.095 24.6108 10.274 25.1928 10.425 25.5808C10.601 26.0578 10.882 26.4908 11.247 26.8458C11.602 27.2108 12.035 27.4918 12.512 27.6678C12.9 27.8188 13.482 27.9978 14.555 28.0468C15.715 28.0998 16.062 28.1108 19 28.1108C21.938 28.1108 22.285 28.0998 23.445 28.0468C24.518 27.9978 25.1 27.8188 25.488 27.6678C26.001 27.4678 26.368 27.2308 26.753 26.8458C27.118 26.4908 27.399 26.0578 27.575 25.5808C27.726 25.1928 27.905 24.6108 27.954 23.5378C28.007 22.3778 28.018 22.0298 28.018 19.0928C28.018 16.1558 28.007 15.8078 27.954 14.6478C27.905 13.5748 27.726 12.9928 27.575 12.6048C27.375 12.0918 27.138 11.7248 26.753 11.3398C26.3979 10.9748 25.9657 10.694 25.488 10.5178C25.1 10.3668 24.518 10.1878 23.445 10.1388ZM17.595 22.4838C18.3797 22.8104 19.2534 22.8545 20.0669 22.6085C20.8805 22.3625 21.5834 21.8417 22.0556 21.135C22.5278 20.4283 22.7401 19.5796 22.656 18.7339C22.572 17.8881 22.197 17.0977 21.595 16.4978C21.2112 16.1143 20.7472 15.8206 20.2363 15.6379C19.7255 15.4553 19.1804 15.3881 18.6405 15.4414C18.1006 15.4946 17.5792 15.667 17.1138 15.9459C16.6485 16.2249 16.2507 16.6035 15.9493 17.0546C15.6479 17.5057 15.4502 18.0181 15.3705 18.5547C15.2908 19.0914 15.3312 19.6391 15.4885 20.1583C15.6459 20.6775 15.9165 21.1554 16.2807 21.5575C16.645 21.9596 17.0938 22.276 17.595 22.4838ZM15.002 15.0948C15.527 14.5697 16.1503 14.1533 16.8363 13.8691C17.5223 13.585 18.2575 13.4387 19 13.4387C19.7425 13.4387 20.4777 13.585 21.1637 13.8691C21.8497 14.1533 22.473 14.5697 22.998 15.0948C23.523 15.6198 23.9395 16.2431 24.2236 16.9291C24.5078 17.615 24.654 18.3503 24.654 19.0928C24.654 19.8353 24.5078 20.5705 24.2236 21.2565C23.9395 21.9425 23.523 22.5657 22.998 23.0908C21.9377 24.1511 20.4995 24.7468 19 24.7468C17.5005 24.7468 16.0623 24.1511 15.002 23.0908C13.9417 22.0304 13.346 20.5923 13.346 19.0928C13.346 17.5932 13.9417 16.1551 15.002 15.0948ZM25.908 14.2808C26.0381 14.158 26.1423 14.0105 26.2143 13.8467C26.2863 13.683 26.3248 13.5065 26.3274 13.3277C26.33 13.1489 26.2967 12.9713 26.2295 12.8056C26.1622 12.6398 26.0624 12.4893 25.936 12.3628C25.8095 12.2363 25.6589 12.1365 25.4932 12.0693C25.3275 12.0021 25.1499 11.9687 24.9711 11.9714C24.7922 11.974 24.6157 12.0124 24.452 12.0845C24.2883 12.1565 24.1407 12.2607 24.018 12.3908C23.7793 12.6438 23.6486 12.9799 23.6537 13.3277C23.6588 13.6755 23.7992 14.0077 24.0452 14.2536C24.2911 14.4996 24.6233 14.64 24.9711 14.6451C25.3189 14.6501 25.655 14.5195 25.908 14.2808Z" fill="white"/>
</svg>
