<svg width="1436" height="492" viewBox="0 0 1436 492" fill="none" xmlns="http://www.w3.org/2000/svg">
<g clip-path="url(#clip0_1_1283)">
<path d="M515.74 460.193C613.814 460.193 693.32 380.688 693.32 282.613C693.32 184.538 613.814 105.033 515.74 105.033C417.665 105.033 338.16 184.538 338.16 282.613C338.16 380.688 417.665 460.193 515.74 460.193Z" fill="#FFC371" stroke="#2A2A35" stroke-width="2.0399" stroke-miterlimit="10"/>
<path d="M1.0332 96.9473C1.0332 96.9473 102.647 92.3235 111.677 205.497C111.677 205.497 159.356 196.005 168.631 240.91C168.631 240.91 282.049 204.409 324.642 321.961C324.642 321.961 423.482 290.547 466.537 373.72C466.537 373.72 513.074 355.28 534.371 391.372C534.371 391.372 647.109 345.76 704.743 436.74C704.743 436.74 835.432 385.552 912.785 489.967H1.0332V96.9473Z" fill="#A8E9FD" stroke="#2A2A35" stroke-width="2.0399" stroke-miterlimit="10"/>
<path d="M1.0332 229.431C1.0332 229.431 68.4042 226.357 74.3879 301.398C74.3879 301.398 105.993 295.115 112.14 324.871C112.14 324.871 187.344 300.664 215.576 378.588C215.576 378.588 281.097 357.754 309.656 412.885C309.656 412.885 340.499 400.646 354.615 424.608C354.615 424.608 429.357 394.39 467.544 454.69C467.544 454.69 554.171 420.746 605.468 489.966H1.0332V229.431Z" fill="#FF9CCE" stroke="#2A2A35" stroke-width="2.0399" stroke-miterlimit="10"/>
</g>
<g clip-path="url(#clip1_1_1283)">
<path d="M1528.6 15.651C1528.6 15.651 1405.74 10.0616 1394.83 146.871C1394.83 146.871 1337.18 135.396 1325.97 189.679C1325.97 189.679 1188.84 145.556 1137.34 287.658C1137.34 287.658 1017.84 249.683 965.783 350.227C965.783 350.227 909.518 327.935 883.77 371.565C883.77 371.565 747.464 316.427 677.782 426.407C677.782 426.407 519.773 364.529 426.249 490.751H1528.6V15.651Z" fill="#8BE4FF" stroke="#2A2A35" stroke-width="2.0399" stroke-miterlimit="10"/>
</g>
<defs>
<clipPath id="clip0_1_1283">
<rect width="914.771" height="407" fill="white" transform="translate(0 84)"/>
</clipPath>
<clipPath id="clip1_1_1283">
<rect width="1106" height="492" fill="white" transform="translate(425)"/>
</clipPath>
</defs>
</svg>
