<svg width="117" height="102" viewBox="0 0 117 102" fill="none" xmlns="http://www.w3.org/2000/svg">
<path d="M87.3725 1.08521H29.6322L0.914062 51.0761L29.6322 100.915H87.3725L116.243 51.0761L87.3725 1.08521Z" stroke="#007EC6" stroke-width="1.51948" stroke-miterlimit="10"/>
<path d="M82.6628 9.13843H34.3433L10.1836 51.0761L34.3433 92.8618H82.6628L106.823 51.0761L82.6628 9.13843Z" stroke="#007EC6" stroke-width="1.51948" stroke-miterlimit="10"/>
<path d="M71.9042 52.3822C79.3216 44.9649 79.3216 32.9389 71.9042 25.5216C64.4869 18.1042 52.4609 18.1042 45.0436 25.5216C37.6262 32.939 37.6262 44.9649 45.0436 52.3822C52.4609 59.7996 64.4869 59.7996 71.9042 52.3822Z" stroke="#007EC6" stroke-width="1.51948" stroke-miterlimit="10"/>
<path d="M71.955 76.5197C79.3723 69.1023 79.3723 57.0764 71.955 49.659C64.5376 42.2417 52.5117 42.2417 45.0944 49.659C37.677 57.0764 37.677 69.1023 45.0944 76.5197C52.5117 83.937 64.5376 83.937 71.955 76.5197Z" stroke="#007EC6" stroke-width="1.51948" stroke-miterlimit="10"/>
<path d="M89.1067 55.4716C91.5298 45.265 85.2201 35.0265 75.0135 32.6034C64.8069 30.1802 54.5685 36.49 52.1453 46.6966C49.7222 56.9032 56.0319 67.1416 66.2385 69.5647C76.4451 71.9879 86.6835 65.6782 89.1067 55.4716Z" stroke="#007EC6" stroke-width="1.51948" stroke-miterlimit="10"/>
<path d="M65.0364 55.3978C67.4595 45.1912 61.1498 34.9528 50.9432 32.5297C40.7366 30.1065 30.4981 36.4162 28.075 46.6228C25.6519 56.8294 31.9616 67.0679 42.1682 69.491C52.3748 71.9142 62.6132 65.6044 65.0364 55.3978Z" stroke="#007EC6" stroke-width="1.51948" stroke-miterlimit="10"/>
</svg>
