<svg width="73" height="76" viewBox="0 0 73 76" fill="none" xmlns="http://www.w3.org/2000/svg">
<rect x="0.5" y="0.5" width="71.8058" height="74.0291" rx="2.5" fill="white"/>
<path fill-rule="evenodd" clip-rule="evenodd" d="M37.6504 38.505C37.6504 33.7186 41.6798 29.8384 46.6504 29.8384C51.621 29.8384 55.6504 33.7186 55.6504 38.505C55.6504 43.2915 51.621 47.1717 46.6504 47.1717C41.6798 47.1717 37.6504 43.2915 37.6504 38.505Z" fill="#1ABCFE"/>
<path fill-rule="evenodd" clip-rule="evenodd" d="M19.6504 55.8383C19.6504 51.0518 23.6798 47.1716 28.6504 47.1716H37.6504V55.8383C37.6504 60.6248 33.621 64.505 28.6504 64.505C23.6798 64.505 19.6504 60.6248 19.6504 55.8383Z" fill="#0ACF83"/>
<path fill-rule="evenodd" clip-rule="evenodd" d="M37.6504 12.5049V29.8382H46.6504C51.621 29.8382 55.6504 25.958 55.6504 21.1715C55.6504 16.3851 51.621 12.5049 46.6504 12.5049H37.6504Z" fill="#FF7262"/>
<path fill-rule="evenodd" clip-rule="evenodd" d="M19.6504 21.1715C19.6504 25.958 23.6798 29.8382 28.6504 29.8382H37.6504V12.5049H28.6504C23.6798 12.5049 19.6504 16.3851 19.6504 21.1715Z" fill="#F24E1E"/>
<path fill-rule="evenodd" clip-rule="evenodd" d="M19.6504 38.5048C19.6504 43.2913 23.6798 47.1715 28.6504 47.1715H37.6504V29.8381H28.6504C23.6798 29.8381 19.6504 33.7183 19.6504 38.5048Z" fill="#A259FF"/>
<rect x="0.5" y="0.5" width="71.8058" height="74.0291" rx="2.5" stroke="black"/>
</svg>
