<svg width="38" height="38" viewBox="0 0 38 38" fill="none" xmlns="http://www.w3.org/2000/svg">
<path d="M18.6219 37.2458C28.9065 37.2458 37.2439 28.9085 37.2439 18.6239C37.2439 8.33928 28.9065 0.00195312 18.6219 0.00195312C8.33733 0.00195312 0 8.33928 0 18.6239C0 28.9085 8.33733 37.2458 18.6219 37.2458Z" fill="black"/>
<path d="M20.0584 16.0864C20.3618 15.7553 20.6101 15.3967 20.9412 15.0932C21.9068 14.1828 23.0379 13.7138 24.3897 13.7414C25.1346 13.7414 25.8519 13.7966 26.5416 14.0173C28.1693 14.4863 29.1073 15.5898 29.5487 17.1899C29.8797 18.3762 29.9349 19.5901 29.9625 20.8039C29.9625 23.3696 29.9625 25.9353 29.9625 28.5286C29.9625 28.7769 29.9073 28.832 29.659 28.832C28.3348 28.832 27.0106 28.832 25.6863 28.832C25.4656 28.832 25.4105 28.7493 25.4105 28.5286C25.4105 26.0732 25.4105 23.6455 25.4105 21.1902C25.4105 20.5832 25.3829 19.9763 25.1898 19.3693C24.8863 18.2658 24.0862 17.7141 22.9275 17.7692C21.355 17.852 20.5274 18.6245 20.3343 20.2246C20.2791 20.6108 20.2515 20.997 20.2515 21.3833C20.2515 23.7558 20.2515 26.156 20.2515 28.5286C20.2515 28.7769 20.1963 28.832 19.948 28.832C18.6238 28.832 17.272 28.832 15.9478 28.832C15.7271 28.832 15.6719 28.7769 15.6719 28.5562C15.6719 23.8386 15.6719 19.1211 15.6719 14.4035C15.6719 14.1828 15.7546 14.1276 15.9753 14.1276C17.2444 14.1276 18.5134 14.1276 19.7825 14.1276C20.0032 14.1276 20.086 14.2104 20.0584 14.4311C20.0584 14.9553 20.0584 15.5346 20.0584 16.0864Z" fill="#FEFEFE"/>
<path d="M12.7984 21.4646C12.7984 23.8096 12.7984 26.127 12.7984 28.472C12.7984 28.7203 12.7432 28.8031 12.4673 28.8031C11.1431 28.7755 9.81886 28.8031 8.49463 28.8031C8.27393 28.8031 8.21875 28.7479 8.21875 28.5272C8.21875 23.8096 8.21875 19.0921 8.21875 14.3745C8.21875 14.1814 8.27393 14.0986 8.46704 14.0986C9.81886 14.0986 11.1431 14.0986 12.4949 14.0986C12.7432 14.0986 12.7984 14.209 12.7984 14.4297C12.7984 16.7747 12.7984 19.1197 12.7984 21.4646Z" fill="#FEFEFE"/>
<path d="M13.1602 9.43677C13.1602 10.8989 11.9739 12.0852 10.5117 12.0852C9.07716 12.0852 7.86328 10.8989 7.86328 9.46436C7.86328 8.00219 9.04957 6.8159 10.5117 6.8159C11.9739 6.78831 13.1602 7.9746 13.1602 9.43677Z" fill="#FEFEFE"/>
</svg>
