<svg width="43" height="44" viewBox="0 0 43 44" fill="none" xmlns="http://www.w3.org/2000/svg">
<path d="M21.0944 21.9998C22.0612 21.9998 22.8892 21.6553 23.5783 20.9662C24.2674 20.2771 24.6114 19.4497 24.6102 18.4841C24.6102 17.5172 24.2656 16.6892 23.5766 16.0002C22.8875 15.3111 22.0601 14.9671 21.0944 14.9683C20.1276 14.9683 19.2996 15.3128 18.6105 16.0019C17.9214 16.691 17.5774 17.5184 17.5786 18.4841C17.5786 19.4509 17.9232 20.2789 18.6123 20.968C19.3014 21.6571 20.1287 22.001 21.0944 21.9998ZM21.0944 34.9204C24.6688 31.639 27.3203 28.6576 29.0489 25.9762C30.7775 23.2948 31.6418 20.9146 31.6418 18.8356C31.6418 15.6421 30.6234 13.0276 28.5866 10.9919C26.5497 8.95627 24.0524 7.93786 21.0944 7.93669C18.1353 7.93669 15.6373 8.95509 13.6005 10.9919C11.5637 13.0287 10.5459 15.6433 10.547 18.8356C10.547 20.9158 11.4113 23.2966 13.1399 25.978C14.8685 28.6593 17.52 31.6401 21.0944 34.9204ZM21.0944 38.9196C20.86 38.9196 20.6256 38.8756 20.3913 38.7877C20.1569 38.6998 19.9518 38.5827 19.776 38.4362C15.4984 34.6567 12.3049 31.1479 10.1955 27.9099C8.08599 24.6718 7.03125 21.6471 7.03125 18.8356C7.03125 14.4409 8.44518 10.9398 11.2731 8.33221C14.1009 5.72467 17.3747 4.4209 21.0944 4.4209C24.8153 4.4209 28.0897 5.72467 30.9175 8.33221C33.7454 10.9398 35.1587 14.4409 35.1576 18.8356C35.1576 21.6483 34.1028 24.6736 31.9934 27.9116C29.8839 31.1497 26.6904 34.6579 22.4128 38.4362C22.237 38.5827 22.032 38.6998 21.7976 38.7877C21.5632 38.8756 21.3288 38.9196 21.0944 38.9196Z" fill="black"/>
</svg>
