<svg width="115" height="221" viewBox="0 0 115 221" fill="none" xmlns="http://www.w3.org/2000/svg">
<g clip-path="url(#clip0_1_3903)">
<path d="M98.5525 107.79C98.5525 107.392 98.8676 107.061 99.2821 107.061L113.212 107.061C113.61 107.061 113.941 107.376 113.941 107.79C113.941 108.188 113.626 108.52 113.212 108.52L99.2821 108.52C98.8842 108.52 98.5525 108.188 98.5525 107.79Z" stroke="#0C0B0E" stroke-width="1.65829" stroke-miterlimit="10"/>
<path d="M96.6446 91.3401C96.6446 90.9919 96.8933 90.6934 97.2416 90.6271L110.956 88.206C111.354 88.1396 111.718 88.405 111.785 88.7864C111.851 89.1678 111.586 89.5492 111.204 89.6155L97.4903 92.0366C97.0923 92.103 96.7275 91.8376 96.6612 91.4562C96.6446 91.4231 96.6446 91.3733 96.6446 91.3401Z" stroke="#0C0B0E" stroke-width="1.65829" stroke-miterlimit="10"/>
<path d="M91.9027 75.4529C91.9027 75.1544 92.0851 74.8891 92.3836 74.773L105.468 70.0137C105.849 69.8811 106.264 70.0635 106.396 70.4449C106.529 70.8097 106.346 71.2409 105.965 71.3735L92.8811 76.1328C92.4997 76.2655 92.0851 76.0831 91.9525 75.7017C91.9193 75.6188 91.9027 75.5358 91.9027 75.4529Z" stroke="#0C0B0E" stroke-width="1.65829" stroke-miterlimit="10"/>
<path d="M84.4727 60.6442C84.4727 60.3954 84.6054 60.1467 84.8376 60.014L96.8933 53.0492C97.2416 52.8502 97.6727 52.9663 97.8717 53.3145C98.0707 53.6628 97.9546 54.0939 97.6064 54.2929L85.5506 61.2577C85.2024 61.4567 84.7712 61.3406 84.5722 60.9924C84.5059 60.8929 84.4727 60.7602 84.4727 60.6442Z" stroke="#0C0B0E" stroke-width="1.65829" stroke-miterlimit="10"/>
<path d="M74.5896 47.3443C74.5896 47.1453 74.6725 46.9297 74.8549 46.7971L85.5177 37.8423C85.8162 37.5936 86.2805 37.6268 86.5293 37.9252C86.778 38.2237 86.7448 38.6881 86.4463 38.9368L75.7835 47.8916C75.4851 48.1403 75.0207 48.1071 74.772 47.8086C74.6393 47.676 74.5896 47.5101 74.5896 47.3443Z" stroke="#0C0B0E" stroke-width="1.65829" stroke-miterlimit="10"/>
<path d="M62.5339 35.9698C62.5339 35.804 62.5837 35.6382 62.6998 35.5055L71.6545 24.8427C71.9033 24.5442 72.3676 24.4945 72.6661 24.7598C72.9646 25.0085 73.0143 25.4729 72.749 25.7714L63.7942 36.4341C63.5455 36.7326 63.0812 36.7824 62.7827 36.5171C62.6168 36.3844 62.5339 36.1688 62.5339 35.9698Z" stroke="#0C0B0E" stroke-width="1.65829" stroke-miterlimit="10"/>
<path d="M48.7043 26.8484C48.7043 26.7323 48.7375 26.5996 48.8038 26.4836L55.7686 14.4278C55.9676 14.0796 56.4153 13.9635 56.747 14.1625C57.0952 14.3615 57.2113 14.8092 57.0123 15.1409L50.0475 27.1966C49.8485 27.5449 49.4008 27.6609 49.0691 27.4619C48.8204 27.3459 48.7043 27.0971 48.7043 26.8484Z" stroke="#0C0B0E" stroke-width="1.65829" stroke-miterlimit="10"/>
<path d="M33.4812 20.2819C33.4812 20.199 33.4978 20.1161 33.531 20.0332L38.2903 6.9493C38.4229 6.56789 38.8375 6.38548 39.2189 6.51814C39.6003 6.65081 39.7827 7.06538 39.6501 7.44678L34.8908 20.5307C34.7581 20.9121 34.3435 21.0945 33.9621 20.9618C33.6637 20.8457 33.4812 20.5804 33.4812 20.2819Z" stroke="#0C0B0E" stroke-width="1.65829" stroke-miterlimit="10"/>
<path d="M17.3622 16.4515C17.3622 16.4017 17.3622 16.3685 17.3788 16.3188L19.7999 2.60475C19.8662 2.20676 20.2476 1.95802 20.629 2.02435C21.027 2.09068 21.2923 2.47208 21.2094 2.85349L18.7883 16.5675C18.722 16.9655 18.3406 17.2143 17.9592 17.1479C17.6109 17.0982 17.3622 16.7997 17.3622 16.4515Z" stroke="#0C0B0E" stroke-width="1.65829" stroke-miterlimit="10"/>
<path d="M0.829773 15.4727L0.829774 1.54312C0.829774 1.14513 1.14484 0.813477 1.55941 0.813477C1.9574 0.813477 2.28906 1.12855 2.28906 1.54312L2.28906 15.4727C2.28906 15.8707 1.97398 16.2024 1.55941 16.2024C1.14484 16.2024 0.829773 15.8707 0.829773 15.4727Z" stroke="#0C0B0E" stroke-width="1.65829" stroke-miterlimit="10"/>
<path d="M6.23601 219.458L6.23601 205.528C6.23601 205.13 6.55109 204.799 6.96566 204.799C7.36365 204.799 7.69531 205.114 7.69531 205.528L7.69531 219.458C7.69531 219.856 7.38023 220.188 6.96566 220.188C6.56767 220.171 6.23601 219.856 6.23601 219.458Z" stroke="#0C0B0E" stroke-width="1.65829" stroke-miterlimit="10"/>
<path d="M22.7012 203.623C22.7012 203.274 22.9499 202.976 23.2982 202.91C23.6962 202.843 24.061 203.109 24.1273 203.49L26.5484 217.204C26.6147 217.602 26.3494 217.967 25.968 218.033C25.57 218.099 25.2052 217.834 25.1389 217.453L22.7178 203.739C22.7012 203.706 22.7012 203.656 22.7012 203.623Z" stroke="#0C0B0E" stroke-width="1.65829" stroke-miterlimit="10"/>
<path d="M38.5713 198.879C38.5713 198.581 38.7537 198.315 39.0522 198.199C39.4336 198.067 39.8482 198.249 39.9809 198.63L44.7402 211.714C44.8728 212.096 44.6904 212.51 44.309 212.643C43.9276 212.776 43.513 212.593 43.3804 212.212L38.6211 199.128C38.5879 199.045 38.5713 198.962 38.5713 198.879Z" stroke="#0C0B0E" stroke-width="1.65829" stroke-miterlimit="10"/>
<path d="M53.3801 191.45C53.3801 191.202 53.5127 190.953 53.7449 190.82C54.0931 190.621 54.5243 190.737 54.7233 191.086L61.6881 203.141C61.8871 203.49 61.771 203.921 61.4228 204.12C61.0745 204.319 60.6434 204.203 60.4444 203.854L53.4796 191.799C53.4132 191.699 53.3801 191.566 53.3801 191.45Z" stroke="#0C0B0E" stroke-width="1.65829" stroke-miterlimit="10"/>
<path d="M66.6802 181.55C66.6802 181.351 66.7631 181.135 66.9455 181.002C67.244 180.754 67.7083 180.787 67.9571 181.085L76.9118 191.748C77.1606 192.047 77.1274 192.511 76.8289 192.76C76.5304 193.008 76.0661 192.975 75.8173 192.677L66.8626 182.014C66.7465 181.881 66.6802 181.716 66.6802 181.55Z" stroke="#0C0B0E" stroke-width="1.65829" stroke-miterlimit="10"/>
<path d="M78.0739 169.511C78.0739 169.345 78.1237 169.179 78.2398 169.047C78.4885 168.748 78.9528 168.699 79.2513 168.964L89.9141 177.919C90.2126 178.167 90.2624 178.632 89.997 178.93C89.7483 179.229 89.284 179.278 88.9855 179.013L78.3227 170.058C78.1569 169.926 78.0739 169.71 78.0739 169.511Z" stroke="#0C0B0E" stroke-width="1.65829" stroke-miterlimit="10"/>
<path d="M87.1759 155.664C87.1759 155.548 87.209 155.415 87.2754 155.299C87.4744 154.951 87.9221 154.835 88.2537 155.034L100.309 161.999C100.658 162.198 100.774 162.646 100.575 162.977C100.376 163.325 99.9281 163.442 99.5964 163.243L87.5407 156.278C87.3085 156.162 87.1759 155.913 87.1759 155.664Z" stroke="#0C0B0E" stroke-width="1.65829" stroke-miterlimit="10"/>
<path d="M93.7448 140.458C93.7448 140.375 93.7614 140.292 93.7945 140.21C93.9272 139.828 94.3418 139.646 94.7232 139.778L107.807 144.538C108.188 144.67 108.371 145.085 108.238 145.466C108.106 145.848 107.691 146.03 107.31 145.897L94.2257 141.138C93.9272 141.039 93.7448 140.757 93.7448 140.458Z" stroke="#0C0B0E" stroke-width="1.65829" stroke-miterlimit="10"/>
<path d="M97.5907 124.339C97.5907 124.29 97.5907 124.257 97.6073 124.207C97.6737 123.809 98.0551 123.56 98.4365 123.626L112.151 126.047C112.548 126.114 112.814 126.495 112.731 126.877C112.665 127.275 112.283 127.523 111.902 127.457L98.1877 125.036C97.8229 124.986 97.5907 124.688 97.5907 124.339Z" stroke="#0C0B0E" stroke-width="1.65829" stroke-miterlimit="10"/>
</g>
<defs>
<clipPath id="clip0_1_3903">
<rect width="221" height="114.754" fill="white" transform="translate(114.754) rotate(90)"/>
</clipPath>
</defs>
</svg>
