<svg width="166" height="137" viewBox="0 0 166 137" fill="none" xmlns="http://www.w3.org/2000/svg">
<g clip-path="url(#clip0_1_904)">
<path d="M160.728 121.019L150.827 132.798L150.804 132.826L150.785 132.857C150.652 133.071 150.537 133.256 150.408 133.42L150.403 133.426C148.532 135.871 144.743 136.835 139.234 136.259C133.758 135.686 126.751 133.605 118.68 130.193C102.544 123.373 82.2603 111.28 61.6638 95.5229C41.0673 79.7659 24.0857 63.3522 13.2785 49.5628C7.87256 42.6651 4.02971 36.4468 2.04384 31.3123C0.0458317 26.1464 -0.0141303 22.2387 1.85681 19.7942C2.06476 19.5237 5.22023 15.7707 8.34368 12.0621C9.90173 10.2122 11.4464 8.37977 12.6015 7.00981L12.611 6.99846C12.0453 9.7287 12.5097 13.0473 13.8181 16.7753C14.2546 18.0237 14.7912 19.3192 15.4168 20.6613L15.4169 20.6615C23.0386 36.9921 44.4363 60.4519 72.9162 82.2371C88.042 93.808 103.088 103.318 116.524 110.156C129.95 116.988 141.808 121.173 150.55 122.057L150.575 122.06H150.595C154.65 122.461 158.103 122.156 160.728 121.019Z" fill="#FECE01" stroke="black"/>
<path d="M14.5905 3.73984C14.4305 3.94984 14.2805 4.17984 14.1405 4.39984L15.6805 2.58984C15.2805 2.94984 14.9105 3.31984 14.5905 3.73984Z" fill="#5465AB"/>
<path d="M163.93 117.98L163.49 118.51C163.64 118.34 163.79 118.17 163.93 117.98Z" fill="#5465AB"/>
<path d="M45.6476 28.6297L45.6469 28.6284C44.8105 27.1672 44.27 25.8699 44.1455 24.7992C44.145 24.7971 44.1445 24.7948 44.144 24.7924C44.143 24.7878 44.142 24.7826 44.141 24.7771C44.1383 24.7627 44.1351 24.7431 44.133 24.7197C44.1208 24.623 44.1208 24.54 44.1208 24.4781L44.1208 24.47L44.1208 24.4615L44.1108 24.4215V24.36V24.3596V24.3593V24.3589V24.3586V24.3582V24.3579V24.3575V24.3572V24.3568V24.3565V24.3561V24.3558V24.3554V24.3551V24.3547V24.3544V24.354V24.3537V24.3533V24.353V24.3526V24.3523V24.352V24.3516V24.3513V24.3509V24.3506V24.3502V24.3499V24.3495V24.3492V24.3488V24.3485V24.3482V24.3478V24.3475V24.3471V24.3468V24.3464V24.3461V24.3458V24.3454V24.3451V24.3447V24.3444V24.344V24.3437V24.3434V24.343V24.3427V24.3423V24.342V24.3417V24.3413V24.341V24.3406V24.3403V24.34V24.3396V24.3393V24.3389V24.3386V24.3383V24.3379V24.3376V24.3373V24.3369V24.3366V24.3362V24.3359V24.3356V24.3352V24.3349V24.3346V24.3342V24.3339V24.3336V24.3332V24.3329V24.3326V24.3322V24.3319V24.3316V24.3312V24.3309V24.3305V24.3302V24.3299V24.3295V24.3292V24.3289V24.3286V24.3282V24.3279V24.3276V24.3272V24.3269V24.3266V24.3262V24.3259V24.3256V24.3252V24.3249V24.3246V24.3242V24.3239V24.3236V24.3233V24.3229V24.3226V24.3223V24.3219V24.3216V24.3213V24.321V24.3206V24.3203V24.32V24.3196V24.3193V24.319V24.3187V24.3183V24.318V24.3177V24.3174V24.317V24.3167V24.3164V24.3161V24.3157V24.3154V24.3151V24.3148V24.3144V24.3141V24.3138V24.3135V24.3131V24.3128V24.3125V24.3122V24.3118V24.3115V24.3112V24.3109V24.3105V24.3102V24.3099V24.3096V24.3092V24.3089V24.3086V24.3083V24.308V24.3076V24.3073V24.307V24.3067V24.3064V24.306V24.3057V24.3054V24.3051V24.3048V24.3044V24.3041V24.3038V24.3035V24.3032V24.3028V24.3025V24.3022V24.3019V24.3016V24.3012V24.3009V24.3006V24.3003V24.3V24.2997V24.2993V24.299V24.2987V24.2984V24.2981V24.2978V24.2974V24.2971V24.2968V24.2965V24.2962V24.2959V24.2955V24.2952V24.2949V24.2946V24.2943V24.294V24.2937V24.2933V24.293V24.2927V24.2924V24.2921V24.2918V24.2915V24.2911V24.2908V24.2905V24.2902V24.2899V24.2896V24.2893V24.2889V24.2886V24.2883V24.288V24.2877V24.2874V24.2871V24.2868V24.2864V24.2861V24.2858V24.2855V24.2852V24.2849V24.2846V24.2843V24.284V24.2836V24.2833V24.283V24.2827V24.2824V24.2821V24.2818V24.2815V24.2812V24.2809V24.2806V24.2802V24.2799V24.2796V24.2793V24.279V24.2787V24.2784V24.2781V24.2778V24.2775V24.2772V24.2768V24.2765V24.2762V24.2759V24.2756V24.2753V24.275V24.2747V24.2744V24.2741V24.2738V24.2735V24.2732V24.2729V24.2726V24.2722V24.2719V24.2716V24.2713V24.271V24.2707V24.2704V24.2701V24.2698V24.2695V24.2692V24.2689V24.2686V24.2683V24.268V24.2677V24.2674V24.2671V24.2668V24.2664V24.2661V24.2658V24.2655V24.2652V24.2649V24.2646V24.2643V24.264V24.2637V24.2634V24.2631V24.2628V24.2625V24.2622V24.2619V24.2616V24.2613V24.261V24.2607V24.2604V24.2601V24.2598V24.2595V24.2592V24.2589V24.2586V24.2583V24.258V24.2577V24.2574V24.2571V24.2568V24.2565V24.2562V24.2559V24.2556V24.2553V24.255V24.2547V24.2544V24.2541V24.2538V24.2535V24.2532V24.2529V24.2526V24.2523V24.252V24.2517V24.2514V24.2511V24.2508V24.2505V24.2502V24.2499V24.2496V24.2493V24.249V24.2487V24.2484V24.2481V24.2478V24.2475V24.2472V24.2469V24.2466V24.2463V24.246V24.2457V24.2454V24.2451V24.2448V24.2445V24.2442V24.2439V24.2436V24.2433V24.243V24.2427V24.2424V24.2421V24.2418V24.2415V24.2412V24.2409V24.2406V24.2403V24.24V24.2397V24.2394V24.2391V24.2388V24.2385V24.2382V24.2379V24.2376V24.2373V24.237V24.2367V24.2365V24.2362V24.2359V24.2356V24.2353V24.235V24.2347V24.2344V24.2341V24.2338V24.2335V24.2332V24.2329V24.2326V24.2323V24.232V24.2317V24.2314V24.2311V24.2308V24.2305V24.2302V24.2299V24.2297V24.2294V24.2291V24.2288V24.2285V24.2282V24.2279V24.2276V24.2273V24.227V24.2267V24.2264V24.2261V24.2258V24.2255V24.2252V24.2249V24.2246V24.2243V24.224V24.2238V24.2235V24.2232V24.2229V24.2226V24.2223V24.222V24.2217V24.2214V24.2211V24.2208V24.2205V24.2202V24.2199V24.2196V24.2193V24.219V24.2188V24.2185V24.2182V24.2179V24.2176V24.2173V24.217V24.2167V24.2164V24.2161V24.2158V24.2155V24.2152V24.2149V24.2146V24.2143V24.2141V24.2138V24.2135V24.2132V24.2129V24.2126V24.2123V24.212V24.2117V24.2114V24.2111V24.2108V24.2105V24.2102V24.2099V24.2097V24.2094V24.2091V24.2088V24.2085V24.2082V24.2079V24.2076V24.2073V24.207V24.2067V24.2064V24.2061V24.2058V24.2056V24.2053V24.205V24.2047V24.2044V24.2041V24.2038V24.2035V24.2032V24.2029V24.2026V24.2023V24.202V24.2017V24.2014V24.2012V24.2009V24.2006V24.2003V24.2L44.1108 24.1949C44.1108 24.1595 44.1107 24.097 44.1222 24.0197C44.1239 23.9882 44.1267 23.9617 44.1283 23.9463L44.1286 23.9439L44.1308 23.9217V23.8684L44.1425 23.8218L44.1439 23.8098C44.145 23.8 44.1471 23.7808 44.1499 23.7608C44.1528 23.7404 44.1576 23.7114 44.1658 23.6787L44.1808 23.6187L44.1935 23.5676C44.2055 23.5127 44.221 23.4684 44.2293 23.4448L44.2375 23.4216L44.2404 23.4101L44.2465 23.3919C44.2465 23.392 44.2466 23.3914 44.2471 23.39L44.2489 23.3839L44.2551 23.3626L44.2559 23.3596C44.2603 23.3443 44.268 23.3175 44.2765 23.2919L44.2811 23.2779L44.2866 23.2643C44.3015 23.227 44.3239 23.1704 44.3493 23.1161C44.37 23.0618 44.3942 23.0157 44.4239 22.9694C44.4592 22.9074 44.5151 22.8099 44.5891 22.7191C45.2647 21.8399 46.4995 21.6095 47.9469 21.7213C47.9477 21.7213 47.9486 21.7214 47.9495 21.7215L47.9108 22.22C48.0608 22.23 48.2208 22.25 48.3808 22.27L45.6476 28.6297ZM45.6476 28.6297C48.0249 32.7543 53.0761 38.5649 59.9738 45.2137C66.8821 51.8727 75.6745 59.4025 85.5671 66.9672C95.0843 74.2465 104.299 80.552 112.321 85.4089C120.333 90.2606 127.183 93.6837 131.962 95.1772L131.963 95.1775C133.432 95.6336 134.721 95.9127 135.796 95.9851C136.841 96.0555 137.749 95.9351 138.422 95.5252C138.424 95.5243 138.426 95.5233 138.428 95.5222C138.442 95.516 138.459 95.5075 138.477 95.4969C138.497 95.4848 138.517 95.4711 138.537 95.4556C138.605 95.4059 138.665 95.3573 138.715 95.3155L45.6476 28.6297ZM81.5608 38.8357C81.375 38.7101 81.1869 38.5848 81.0003 38.4604L80.9982 38.459C80.8105 38.3338 80.6243 38.2097 80.4408 38.0857C79.3268 37.333 78.2235 36.6108 77.131 35.9093L77.13 35.9086L76.59 35.5636L76.05 35.2186L76.0484 35.2176C74.2459 34.076 72.5028 32.9941 70.8092 31.9719L70.8087 31.9716C67.7616 30.1373 64.8825 28.5121 62.2418 27.1365L62.2405 27.1359L62.2383 27.1347C61.6597 26.8354 61.0773 26.5342 60.5144 26.2528C59.9523 25.9717 59.4001 25.7006 58.8577 25.4395L58.8578 25.4394L58.8509 25.4362C58.6893 25.3614 58.5276 25.2861 58.3664 25.2111C57.9939 25.0377 57.6245 24.8657 57.2664 24.7042L57.2628 24.7026C56.4909 24.3618 55.7461 24.0396 55.0299 23.7471L55.0299 23.7471L55.0249 23.7451C54.5437 23.5546 54.0824 23.3741 53.641 23.2036L53.6411 23.2034L53.6298 23.1994C53.5305 23.1638 53.4309 23.1275 53.331 23.0911C53.0498 22.9888 52.7669 22.8858 52.4871 22.795C52.4864 22.7948 52.4858 22.7946 52.4851 22.7944L52.3089 22.7356L52.1338 22.6773C52.133 22.677 52.1322 22.6767 52.1313 22.6764C51.8323 22.5734 51.5546 22.4911 51.288 22.4121C51.03 22.3297 50.773 22.2577 50.5267 22.1961L81.5608 38.8357ZM81.5608 38.8357C82.3022 39.3344 83.0451 39.8427 83.7946 40.3554C84.1885 40.6249 84.5841 40.8955 84.9823 41.1667L84.9853 41.1688C89.2122 44.0936 93.5987 47.2883 98.0448 50.693C100.469 52.5458 102.832 54.4083 105.114 56.24C105.875 56.8514 106.627 57.4628 107.369 58.0742L107.37 58.0753C108.11 58.6848 108.85 59.2952 109.571 59.8959C110.121 60.3544 110.672 60.8191 111.212 61.2751C111.38 61.4169 111.547 61.5579 111.713 61.6977L111.717 61.7014C111.971 61.9203 112.225 62.1369 112.48 62.3546C112.735 62.5719 112.991 62.7903 113.247 63.0114L113.249 63.0124C113.44 63.1785 113.633 63.3449 113.826 63.5112C114.162 63.8001 114.497 64.0888 114.822 64.3751C116.174 65.5567 117.475 66.7181 118.736 67.8592C119.368 68.4304 119.989 69.0016 120.59 69.5629C121.187 70.1103 121.764 70.6574 122.327 71.1922L122.375 71.237C122.925 71.7582 123.466 72.2792 123.995 72.7896L124.058 72.8499L124.064 72.8564L124.064 72.8564L124.064 72.8565L124.065 72.8567L124.065 72.8568L124.065 72.8569L124.065 72.857L124.065 72.8571L124.065 72.8572L124.065 72.8574L124.065 72.8575L124.066 72.8576L124.066 72.8577L124.066 72.8578L124.066 72.8579L124.066 72.858L124.066 72.8582L124.066 72.8583L124.066 72.8584L124.066 72.8585L124.067 72.8586L124.067 72.8587L124.067 72.8588L124.067 72.859L124.067 72.8591L124.067 72.8592L124.067 72.8593L124.067 72.8594L124.067 72.8595L124.068 72.8596L124.068 72.8597L124.068 72.8598L124.068 72.86L124.068 72.8601L124.068 72.8602L124.068 72.8603L124.068 72.8604L124.068 72.8605L124.069 72.8606L124.069 72.8607L124.069 72.8608L124.069 72.8609L124.069 72.8611L124.069 72.8612L124.069 72.8613L124.069 72.8614L124.069 72.8615L124.07 72.8616L124.07 72.8617L124.07 72.8618L124.07 72.8619L124.07 72.862L124.07 72.8621L124.07 72.8622L124.07 72.8623L124.07 72.8624L124.071 72.8626L124.071 72.8627L124.071 72.8628L124.071 72.8629L124.071 72.863L124.071 72.8631L124.071 72.8632L124.071 72.8633L124.071 72.8634L124.071 72.8635L124.072 72.8636L124.072 72.8637L124.072 72.8638L124.072 72.8639L124.072 72.864L124.072 72.8641L124.072 72.8642L124.072 72.8643L124.072 72.8644L124.072 72.8645L124.073 72.8646L124.073 72.8647L124.073 72.8648L124.073 72.8649L124.073 72.865L124.073 72.8652L124.073 72.8652L124.073 72.8653L124.073 72.8655L124.074 72.8656L124.074 72.8657L124.074 72.8658L124.074 72.8659L124.074 72.866L124.074 72.8661L124.074 72.8662L124.074 72.8663L124.074 72.8664L124.074 72.8665L124.075 72.8666L124.075 72.8667L124.075 72.8668L124.075 72.8669L124.075 72.867L124.075 72.8671L124.075 72.8671L124.075 72.8672L124.075 72.8673L124.075 72.8674L124.076 72.8675L124.076 72.8676L124.076 72.8677L124.076 72.8678L124.076 72.8679L124.076 72.868L124.076 72.8681L124.076 72.8682L124.076 72.8683L124.076 72.8684L124.076 72.8685L124.077 72.8686L124.077 72.8687L124.077 72.8688L124.077 72.8689L124.077 72.869L124.077 72.8691L124.077 72.8692L124.077 72.8693L124.077 72.8694L124.077 72.8695L124.078 72.8696L124.078 72.8697L124.078 72.8698L124.078 72.8699L124.078 72.87L124.078 72.8701L124.078 72.8702L124.078 72.8702L124.078 72.8703L124.078 72.8704L124.078 72.8705L124.079 72.8706L124.079 72.8707L124.079 72.8708L124.079 72.8709L124.079 72.871L124.079 72.8711L124.079 72.8712L124.079 72.8713L124.079 72.8714L124.079 72.8715L124.08 72.8716L124.08 72.8717L124.08 72.8717L124.08 72.8718L124.08 72.8719L124.08 72.872L124.08 72.8721L124.08 72.8722L124.08 72.8723L124.08 72.8724L124.08 72.8725L124.081 72.8726L124.081 72.8727L124.081 72.8728L124.081 72.8729L124.081 72.873L124.081 72.873L124.081 72.8731L124.081 72.8732L124.081 72.8733L124.081 72.8734L124.081 72.8735L124.082 72.8736L124.082 72.8737L124.082 72.8738L124.082 72.8739L124.082 72.874L124.082 72.8741L124.082 72.8741L124.082 72.8742L124.082 72.8743L124.082 72.8744L124.082 72.8745L124.083 72.8746L124.083 72.8747L124.083 72.8748L124.083 72.8749L124.083 72.875L124.083 72.875L124.083 72.8751L124.083 72.8752L124.083 72.8753L124.083 72.8754L124.083 72.8755L124.084 72.8756L124.084 72.8757L124.084 72.8758L124.084 72.8759L124.084 72.8759L124.084 72.876L124.084 72.8761L124.084 72.8762L124.084 72.8763L124.084 72.8764L124.084 72.8765L124.085 72.8766L124.085 72.8767L124.085 72.8767L124.085 72.8768L124.085 72.8769L124.085 72.877L124.085 72.8771L124.085 72.8772L124.085 72.8773L124.085 72.8774L124.085 72.8775L124.086 72.8775L124.086 72.8776L124.086 72.8777L124.086 72.8778L124.086 72.8779L124.086 72.878L124.086 72.8781L124.086 72.8782L124.086 72.8783L124.086 72.8783L124.086 72.8784L124.086 72.8785L124.087 72.8786L124.087 72.8787L124.087 72.8788L124.087 72.8789L124.087 72.879L124.087 72.8791L124.087 72.8791L124.087 72.8792L124.087 72.8793L124.087 72.8794L124.087 72.8795L124.088 72.8796L124.088 72.8797L124.088 72.8798L124.088 72.8799L124.088 72.8799L124.088 72.88L124.088 72.8801L124.088 72.8802L124.088 72.8803L124.088 72.8804L124.088 72.8805L124.089 72.8806L124.089 72.8806L124.089 72.8807L124.089 72.8808L124.089 72.8809L124.089 72.881L124.089 72.8811L124.089 72.8812L124.089 72.8813L124.089 72.8813L124.089 72.8814L124.089 72.8815L124.09 72.8816L124.09 72.8817L124.09 72.8818L124.09 72.8819L124.09 72.882L124.09 72.882L124.09 72.8821L124.09 72.8822L124.09 72.8823L124.09 72.8824L124.09 72.8825L124.091 72.8826L124.091 72.8827L124.091 72.8828L124.091 72.8828L124.091 72.8829L124.091 72.883L124.091 72.8831L124.091 72.8832L124.091 72.8833L124.091 72.8834L124.091 72.8835L124.091 72.8835L124.092 72.8836L124.092 72.8837L124.092 72.8838L124.092 72.8839L124.092 72.884L124.092 72.8841L124.092 72.8842L124.092 72.8842L124.092 72.8843L124.092 72.8844L124.092 72.8845L124.093 72.8846L124.093 72.8847L124.093 72.8848L124.093 72.8849L124.093 72.885L124.093 72.885L124.093 72.8851L124.093 72.8852L124.093 72.8853L124.093 72.8854L124.093 72.8855L124.094 72.8856L124.094 72.8857L124.094 72.8858L124.094 72.8858L124.094 72.8859L124.094 72.886L124.094 72.8861L124.094 72.8862L124.094 72.8863L124.094 72.8864L124.094 72.8865L124.095 72.8866L124.095 72.8867L124.095 72.8867L124.095 72.8868L124.095 72.8869L124.095 72.887L124.095 72.8871L124.095 72.8872L124.095 72.8873L124.095 72.8874L124.095 72.8875L124.095 72.8876L124.096 72.8876L124.096 72.8877L124.096 72.8878L124.096 72.8879L124.096 72.888L124.096 72.8881L124.096 72.8882L124.096 72.8883L124.096 72.8884L124.096 72.8885L124.096 72.8885L124.097 72.8886L124.097 72.8887L124.097 72.8888L124.097 72.8889L124.097 72.889L124.097 72.8891L124.097 72.8892L124.097 72.8893L124.097 72.8894L124.097 72.8895L124.097 72.8895L124.098 72.8896L124.098 72.8897L124.098 72.8898L124.098 72.8899L124.098 72.89L124.098 72.8901L124.098 72.8902L124.098 72.8903L124.098 72.8904L124.098 72.8905L124.099 72.8906L124.099 72.8906L124.099 72.8907L124.099 72.8908L124.099 72.8909L124.099 72.891L124.099 72.8911L124.099 72.8912L124.099 72.8913L124.099 72.8914L124.099 72.8915L124.1 72.8916L124.1 72.8917L124.1 72.8918L124.1 72.8919L124.1 72.892L124.1 72.8921L124.1 72.8921L124.1 72.8922L124.1 72.8923L124.1 72.8924L124.1 72.8925L124.101 72.8926L124.101 72.8927L124.101 72.8928L124.101 72.8929L124.101 72.893L124.101 72.8931L124.101 72.8932L124.101 72.8933L124.101 72.8934L124.101 72.8935L124.102 72.8936L124.102 72.8937L124.102 72.8938L124.102 72.8939L124.102 72.894L124.102 72.8941L124.102 72.8941L124.102 72.8942L124.102 72.8943L124.102 72.8944L124.102 72.8945L124.103 72.8946L124.103 72.8947L124.103 72.8948L124.103 72.8949L124.103 72.895L124.103 72.8951L124.103 72.8952L124.103 72.8953L124.103 72.8954L124.103 72.8955L124.104 72.8956L124.104 72.8957L124.104 72.8958L124.104 72.8959L124.104 72.896L124.104 72.8961L124.104 72.8962L124.104 72.8963L124.104 72.8964L124.104 72.8965L124.105 72.8966L124.105 72.8967L124.105 72.8968L124.105 72.8969L124.105 72.897L124.105 72.8971L124.105 72.8972L124.105 72.8973L124.105 72.8974L124.105 72.8975L124.106 72.8976L124.106 72.8977L124.106 72.8978L124.106 72.8979L124.106 72.898L124.106 72.8981L124.106 72.8982L124.106 72.8983L124.106 72.8984L124.106 72.8985L124.107 72.8986L124.107 72.8987L124.107 72.8988L124.107 72.8989L124.107 72.899L124.107 72.8992L124.107 72.8993L124.107 72.8994L124.107 72.8995L124.108 72.8996L124.108 72.8997L124.108 72.8998L124.108 72.8999L124.108 72.9C124.94 73.7023 125.743 74.4948 126.515 75.2775C126.907 75.6688 127.278 76.0498 127.646 76.4281L127.649 76.4312C127.835 76.6226 128.022 76.8162 128.205 77.0073C128.389 77.1988 128.57 77.3876 128.749 77.5713L128.752 77.5737C129.234 78.0761 129.696 78.5686 130.149 79.0612C130.149 79.0614 130.149 79.0616 130.149 79.0618L81.5608 38.8357ZM105.007 40.2871L105.007 40.2871C125.601 56.0375 142.435 72.6336 153.006 86.7213C158.293 93.7681 161.996 100.164 163.827 105.495C165.665 110.843 165.577 114.985 163.52 117.678L163.094 118.191C160.838 120.639 156.758 121.617 151.101 121.115V121.06H150.616C142.06 120.189 130.342 116.07 116.969 109.264C103.593 102.457 88.5988 92.9819 73.5146 81.4429C45.0746 59.6881 23.8423 36.3479 16.3239 20.2385C15.7096 18.9208 15.1863 17.6564 14.7628 16.445L14.7626 16.4444C12.9957 11.4102 12.9074 7.42751 14.5477 4.70342L16.0363 2.95374C18.5535 0.801959 22.8168 0.0649824 28.5552 0.744327C34.2916 1.42344 41.3869 3.50497 49.4143 6.83433C65.4647 13.4913 85.1573 25.1014 105.007 40.2871ZM136.208 86.3398C136.065 86.1359 135.923 85.943 135.773 85.7434L139.521 93.08C139.521 93.0692 139.521 93.0588 139.52 93.049C139.52 93.0479 139.52 93.0468 139.52 93.0458C139.518 93.0154 139.514 92.9903 139.511 92.9728C139.509 92.9648 139.508 92.9577 139.506 92.9517C139.485 92.7539 139.453 92.5507 139.4 92.3352C139.391 92.2855 139.379 92.2439 139.372 92.2189C139.361 92.1821 139.361 92.1818 139.361 92.1819L139.358 92.1672L139.354 92.1527C139.3 91.9474 139.236 91.7456 139.165 91.5319C139.144 91.4679 139.12 91.4098 139.103 91.3696C139.085 91.3248 139.074 91.2979 139.065 91.2719L139.058 91.2504L139.049 91.2296C138.981 91.0755 138.914 90.9107 138.843 90.7396L138.84 90.733C138.778 90.5865 138.714 90.4493 138.641 90.3024C138.592 90.1971 138.535 90.0856 138.481 89.9807C138.456 89.9306 138.431 89.882 138.408 89.8364L138.408 89.8363L138.404 89.8276C138.189 89.4189 137.954 89.0001 137.689 88.5613L137.688 88.56C137.546 88.3276 137.393 88.0823 137.229 87.8356C136.916 87.352 136.583 86.8564 136.208 86.3398ZM44.1418 23.8277C44.1418 23.828 44.1418 23.8279 44.1418 23.8276L44.1418 23.8277Z" fill="#E63B1D" stroke="black"/>
<path d="M52.3397 23.24C52.7097 23.36 53.0797 23.5 53.4697 23.64C53.0797 23.49 52.6997 23.36 52.3397 23.24Z" fill="black"/>
<path d="M109.24 60.26C109.96 60.86 110.68 61.47 111.38 62.06C110.68 61.47 109.96 60.87 109.24 60.26Z" fill="black"/>
<path d="M57.0604 25.13C57.5704 25.36 58.1004 25.61 58.6404 25.86C58.0904 25.61 57.5704 25.36 57.0604 25.13Z" fill="black"/>
<path d="M53.4608 23.6399C53.9008 23.8099 54.3608 23.9899 54.8408 24.1799C54.3708 23.9799 53.9108 23.7999 53.4608 23.6399Z" fill="black"/>
<path d="M112.91 63.38C113.44 63.84 113.97 64.29 114.48 64.74C113.96 64.29 113.44 63.83 112.91 63.38Z" fill="black"/>
<path d="M44.621 24.0599C44.621 24.0099 44.631 23.9599 44.631 23.9199C44.631 23.9699 44.621 24.0099 44.621 24.0599Z" fill="black"/>
<path d="M44.66 23.79C44.67 23.75 44.68 23.71 44.69 23.67C44.67 23.71 44.66 23.75 44.66 23.79Z" fill="black"/>
<path d="M48.3905 22.25C49.0005 22.33 49.6705 22.46 50.4105 22.66C49.6705 22.46 49.0005 22.32 48.3905 22.25Z" fill="black"/>
<path d="M51.1503 22.86C51.4203 22.94 51.6903 23.02 51.9803 23.12C51.6903 23.03 51.4203 22.94 51.1503 22.86Z" fill="black"/>
<path d="M123.699 73.2C123.719 73.22 123.729 73.23 123.749 73.25C123.739 73.23 123.719 73.22 123.699 73.2Z" fill="black"/>
<path d="M138.61 94.63C138.55 94.7 138.49 94.77 138.42 94.84C138.49 94.77 138.55 94.71 138.61 94.63C138.91 94.23 139.03 93.7 138.97 93.05C139.03 93.7 138.92 94.23 138.61 94.63Z" fill="black"/>
<path d="M138.381 94.8799C138.321 94.9299 138.261 94.9799 138.191 95.0299C138.251 94.9799 138.321 94.9299 138.381 94.8799Z" fill="black"/>
<path d="M138.65 91.67C138.72 91.88 138.78 92.07 138.83 92.26C138.78 92.07 138.72 91.87 138.65 91.67Z" fill="black"/>
<path d="M138.351 90.9102C138.421 91.0802 138.491 91.2502 138.561 91.4102C138.501 91.2402 138.431 91.0802 138.351 90.9102Z" fill="black"/>
<path d="M137.941 90.04C138.021 90.2 138.101 90.35 138.171 90.5C138.091 90.35 138.021 90.19 137.941 90.04Z" fill="black"/>
<path d="M44.7596 23.43C44.7796 23.38 44.7996 23.33 44.8196 23.29C44.7996 23.33 44.7696 23.38 44.7596 23.43Z" fill="#EF5924"/>
<path d="M138.19 95.02C138.18 95.03 138.17 95.03 138.15 95.04C138.16 95.04 138.17 95.03 138.19 95.02Z" fill="#EF5924"/>
<path d="M127.291 76.77C127.661 77.15 128.031 77.54 128.391 77.91C128.031 77.54 127.661 77.16 127.291 76.77Z" fill="#EF5924"/>
<path d="M44.8593 23.21C44.8993 23.14 44.9393 23.07 44.9893 23.01C44.9393 23.08 44.8993 23.14 44.8593 23.21Z" fill="#EF5924"/>
<path d="M44.6193 24.4601C44.6193 24.4201 44.6193 24.3901 44.6093 24.3501C44.6093 24.3901 44.6193 24.4301 44.6193 24.4601Z" fill="#EF5924"/>
<path d="M44.6288 23.92C44.6388 23.88 44.6388 23.83 44.6488 23.79C44.6488 23.83 44.6388 23.88 44.6288 23.92Z" fill="#EF5924"/>
<path d="M104.791 56.6101C102.511 54.7701 100.151 52.9201 97.7313 51.0701C100.151 52.9201 102.511 54.7801 104.791 56.6101Z" fill="#EF5924"/>
<path d="M44.6093 24.1901C44.6093 24.1501 44.6093 24.1101 44.6193 24.0601C44.6193 24.1001 44.6093 24.1401 44.6093 24.1901Z" fill="#EF5924"/>
<path d="M70.5409 32.3701C72.2309 33.3901 73.9709 34.4701 75.7709 35.6101C73.9809 34.4701 72.2309 33.3901 70.5409 32.3701Z" fill="#EF5924"/>
<path d="M104.791 56.6101C105.551 57.2201 106.301 57.8301 107.041 58.4401C106.301 57.8401 105.551 57.2301 104.791 56.6101Z" fill="#EF5924"/>
<path d="M50.41 22.65C50.65 22.71 50.9 22.78 51.15 22.86C50.9 22.79 50.65 22.72 50.41 22.65Z" fill="#EF5924"/>
<path d="M76.8514 36.3101C77.9414 37.0101 79.0414 37.7301 80.1514 38.4801C79.0414 37.7301 77.9314 37.0101 76.8514 36.3101Z" fill="#EF5924"/>
<path d="M111.381 62.0701C111.891 62.5101 112.401 62.9401 112.911 63.3801C112.411 62.9401 111.901 62.5101 111.381 62.0701Z" fill="#EF5924"/>
<path d="M135.791 86.6101C136.161 87.1201 136.491 87.6101 136.801 88.0901C136.491 87.6201 136.151 87.1301 135.791 86.6101Z" fill="#EF5924"/>
<path d="M62 27.55C64.63 28.92 67.5 30.54 70.54 32.37C67.5 30.54 64.64 28.93 62 27.55Z" fill="#EF5924"/>
<path d="M138.56 91.41C138.59 91.5 138.63 91.58 138.66 91.67C138.62 91.58 138.59 91.49 138.56 91.41Z" fill="#EF5924"/>
<path d="M81.2694 39.23C82.3994 39.99 83.5294 40.77 84.6894 41.56C83.5394 40.76 82.3994 39.99 81.2694 39.23Z" fill="#EF5924"/>
<path d="M138.17 90.5C138.24 90.64 138.3 90.77 138.36 90.91C138.29 90.77 138.23 90.64 138.17 90.5Z" fill="#EF5924"/>
<path d="M138.969 92.99C138.969 93.01 138.979 93.03 138.979 93.05C138.969 93.03 138.969 93.01 138.969 92.99Z" fill="#EF5924"/>
<path d="M138.83 92.26C138.84 92.31 138.86 92.36 138.87 92.42C138.86 92.37 138.85 92.31 138.83 92.26Z" fill="#EF5924"/>
<path d="M54.8397 24.1801C55.5497 24.4701 56.2897 24.7901 57.0597 25.1301C56.2897 24.7801 55.5497 24.4701 54.8397 24.1801Z" fill="#EF5924"/>
<path d="M60.2792 26.6699C60.8392 26.9499 61.4192 27.2499 61.9992 27.5499C61.4192 27.2499 60.8492 26.9499 60.2792 26.6699Z" fill="#EF5924"/>
<path d="M96.5304 58.8199C119.16 77.3199 130.38 88.6899 135.93 95.4499C136.88 95.4899 137.63 95.3699 138.14 95.0399C138.15 95.0299 138.16 95.0299 138.18 95.0199C138.25 94.9799 138.31 94.9299 138.37 94.8699C138.38 94.8599 138.4 94.8499 138.42 94.8299C138.49 94.77 138.55 94.7 138.61 94.6199C138.91 94.2199 139.03 93.6899 138.97 93.0399C138.97 93.02 138.97 92.9999 138.96 92.9799C138.94 92.7999 138.91 92.5999 138.86 92.3999C138.85 92.3499 138.84 92.2999 138.82 92.2399C138.77 92.0499 138.71 91.8499 138.64 91.6499C138.61 91.56 138.58 91.4799 138.54 91.3899C138.48 91.2299 138.41 91.0599 138.33 90.8899C138.27 90.7599 138.21 90.6199 138.14 90.4799C138.07 90.3299 137.99 90.1699 137.91 90.0199C137.71 89.6299 137.48 89.2099 137.21 88.7799C137.07 88.5499 136.92 88.3099 136.76 88.0699C136.45 87.5999 136.12 87.1099 135.75 86.5899C135.61 86.3999 135.47 86.1999 135.32 85.9999C135.03 85.5999 134.72 85.1999 134.39 84.7799C133.09 83.1199 131.53 81.2999 129.73 79.3599C129.28 78.8699 128.82 78.3799 128.34 77.8799C127.98 77.4999 127.61 77.1199 127.24 76.7399C126.87 76.3599 126.49 75.9699 126.11 75.5899C125.34 74.8099 124.54 74.0199 123.71 73.2199C123.69 73.1999 123.68 73.1899 123.66 73.1699C123.11 72.6399 122.55 72.0999 121.98 71.5599C121.4 71.0099 120.8 70.4499 120.2 69.8899C119.59 69.3299 118.98 68.7599 118.35 68.1899C117.09 67.0499 115.79 65.8799 114.44 64.7099C113.92 64.2599 113.4 63.7999 112.87 63.3499C112.37 62.9199 111.86 62.4799 111.34 62.0399C110.64 61.4399 109.92 60.8399 109.2 60.2399C108.48 59.6399 107.74 59.0299 107 58.4199C106.26 57.8099 105.51 57.1999 104.75 56.5899C102.47 54.7499 100.11 52.8999 97.6904 51.0499C93.2504 47.6499 88.8704 44.4599 84.6504 41.5399C83.5004 40.7399 82.3604 39.9599 81.2304 39.2099C80.8504 38.9599 80.4804 38.7099 80.1104 38.4599C78.9904 37.7199 77.8904 36.9899 76.8104 36.2899C76.4504 36.0599 76.0904 35.8199 75.7304 35.5999C73.9404 34.4599 72.1904 33.3699 70.5004 32.3599C67.4604 30.5299 64.6004 28.9099 61.9604 27.5399C61.3704 27.2299 60.8004 26.9399 60.2404 26.6599C59.6804 26.3799 59.1304 26.1099 58.5904 25.8499C58.0504 25.5899 57.5304 25.3499 57.0104 25.1199C56.2404 24.7699 55.5004 24.4499 54.7904 24.1699C54.3204 23.9799 53.8604 23.7999 53.4104 23.6299C53.0204 23.4899 52.6504 23.3499 52.2804 23.2299C52.1604 23.1899 52.0404 23.1499 51.9204 23.1099C51.6404 23.0199 51.3604 22.9299 51.0904 22.8499C50.8404 22.7799 50.5904 22.6999 50.3504 22.6399C49.6104 22.4499 48.9404 22.3099 48.3304 22.2299C48.1704 22.2099 48.0104 22.1899 47.8604 22.1799C46.4404 22.0699 45.4404 22.3299 44.9304 22.9899C44.8804 23.0499 44.8404 23.1199 44.8004 23.1899C44.7904 23.2099 44.7804 23.2399 44.7604 23.2699C44.7404 23.3199 44.7104 23.3599 44.7004 23.4099C44.6904 23.4399 44.6804 23.4799 44.6704 23.5099C44.6604 23.5499 44.6404 23.5999 44.6304 23.6399C44.6204 23.6799 44.6104 23.7199 44.6004 23.7599C44.5904 23.7999 44.5804 23.8499 44.5804 23.8899C44.5704 23.9399 44.5704 23.9799 44.5704 24.0299C44.5704 24.0699 44.5704 24.1099 44.5604 24.1599C44.5604 24.2099 44.5604 24.2699 44.5604 24.3199C44.5604 24.3599 44.5604 24.3899 44.5704 24.4299C44.5704 24.4899 44.5804 24.5599 44.5804 24.6299C44.5804 24.6499 44.5904 24.6699 44.5904 24.6899C44.7004 25.5599 45.1004 26.6399 45.7904 27.8999C52.0104 28.8199 66.0604 33.9099 96.5304 58.8199Z" fill="#FECE01"/>
</g>
<defs>
<clipPath id="clip0_1_904">
<rect width="165.65" height="136.92" fill="white"/>
</clipPath>
</defs>
</svg>
