<svg width="38" height="38" viewBox="0 0 38 38" fill="none" xmlns="http://www.w3.org/2000/svg">
<path d="M18.8641 37.2439C29.1487 37.2439 37.4861 28.9065 37.4861 18.6219C37.4861 8.33733 29.1487 0 18.8641 0C8.57951 0 0.242188 8.33733 0.242188 18.6219C0.242188 28.9065 8.57951 37.2439 18.8641 37.2439Z" fill="black"/>
<path d="M15.1102 29.3522C24.2142 29.3522 29.1801 21.8206 29.1801 15.2823C29.1801 15.0616 29.1801 14.8684 29.1525 14.6477C30.1181 13.958 30.9457 13.0752 31.6078 12.0821C30.725 12.4683 29.7594 12.7442 28.7662 12.8545C29.787 12.2476 30.5595 11.282 30.9457 10.1233C29.9801 10.7027 28.9318 11.0889 27.8007 11.3372C26.8903 10.3716 25.6212 9.76465 24.1866 9.76465C21.4554 9.76465 19.2484 11.9717 19.2484 14.7029C19.2484 15.0891 19.3035 15.4754 19.3863 15.834C15.2757 15.6409 11.6341 13.6546 9.20631 10.6751C8.79249 11.3924 8.5442 12.2476 8.5442 13.158C8.5442 14.8685 9.42701 16.3858 10.7512 17.2686C9.95119 17.241 9.17872 17.0203 8.51661 16.6617C8.51661 16.6892 8.51661 16.6893 8.51661 16.7168C8.51661 19.117 10.2271 21.1034 12.4893 21.5723C12.0755 21.6827 11.6341 21.7379 11.1926 21.7379C10.8616 21.7379 10.5581 21.7103 10.2547 21.6551C10.8892 23.6139 12.71 25.0484 14.8619 25.076C13.179 26.4002 11.0271 27.2003 8.70972 27.2003C8.32349 27.2003 7.90967 27.1727 7.52344 27.1451C9.70289 28.5245 12.2962 29.3522 15.1102 29.3522Z" fill="white"/>
</svg>
