<svg width="100" height="383" viewBox="0 0 100 383" fill="none" xmlns="http://www.w3.org/2000/svg">
<path d="M-11.9883 42.5209H-58.7358L-0.899925 188.725L-0.855232 188.838L-0.882614 188.956L-35.9297 340.492H7.13966H9.91859C10.4771 339.9 11.2243 338.845 12.1416 337.354C13.1095 335.782 14.2507 333.753 15.5388 331.331C18.1147 326.488 21.2694 320.092 24.7861 312.683C31.819 297.866 40.2926 279.012 48.4658 260.456C56.6387 241.901 64.5101 223.648 70.3383 210.033C73.2524 203.225 75.6557 197.577 77.3304 193.631C78.1678 191.659 78.823 190.111 79.2689 189.057C79.4918 188.53 79.6624 188.126 79.7772 187.854L79.8719 187.63L-11.9883 42.5209Z" fill="#FECE01" stroke="black" stroke-width="0.78"/>
</svg>
