<svg width="375" height="291" viewBox="0 0 375 291" fill="none" xmlns="http://www.w3.org/2000/svg">
<mask id="mask0_1_18484" style="mask-type:luminance" maskUnits="userSpaceOnUse" x="1" y="161" width="374" height="130">
<path d="M374.477 161.982H1.23633V290.853H374.477V161.982Z" fill="white"/>
</mask>
<g mask="url(#mask0_1_18484)">
<path d="M142.33 214.885H124.121L130.421 210.988H146.834L142.33 214.885Z" fill="#2A2A35"/>
<path d="M160.544 214.885H142.33L146.834 210.988H163.242L160.544 214.885Z" fill="white"/>
<path d="M178.754 214.885H160.545L163.242 210.988H179.655L178.754 214.885Z" fill="#2A2A35"/>
<path d="M196.966 214.885H178.752L179.653 210.988H196.065L196.966 214.885Z" fill="white"/>
<path d="M215.176 214.885H196.967L196.066 210.988H212.479L215.176 214.885Z" fill="#2A2A35"/>
<path d="M233.392 214.885H215.178L212.48 210.988H228.888L233.392 214.885Z" fill="white"/>
<path d="M251.6 214.885H233.39L228.887 210.988H245.299L251.6 214.885Z" fill="#2A2A35"/>
<path d="M136.715 219.737H116.262L124.12 214.885H142.329L136.715 219.737Z" fill="white"/>
<path d="M157.173 219.737H136.715L142.328 214.885H160.543L157.173 219.737Z" fill="#2A2A35"/>
<path d="M177.634 219.737H157.176L160.545 214.885H178.754L177.634 219.737Z" fill="white"/>
<path d="M198.086 219.737H177.633L178.753 214.885H196.967L198.086 219.737Z" fill="#2A2A35"/>
<path d="M218.545 219.737H198.087L196.967 214.885H215.176L218.545 219.737Z" fill="white"/>
<path d="M239.002 219.737H218.543L215.174 214.885H233.388L239.002 219.737Z" fill="#2A2A35"/>
<path d="M259.458 219.737H239.004L233.391 214.885H251.6L259.458 219.737Z" fill="white"/>
<path d="M129.523 225.954H106.193L116.261 219.738H136.715L129.523 225.954Z" fill="#2A2A35"/>
<path d="M152.858 225.954H129.523L136.715 219.738H157.173L152.858 225.954Z" fill="white"/>
<path d="M176.192 225.954H152.857L157.172 219.738H177.631L176.192 225.954Z" fill="#2A2A35"/>
<path d="M199.523 225.954H176.193L177.632 219.738H198.085L199.523 225.954Z" fill="white"/>
<path d="M222.859 225.954H199.524L198.086 219.738H218.545L222.859 225.954Z" fill="#2A2A35"/>
<path d="M246.193 225.954H222.858L218.543 219.738H239.002L246.193 225.954Z" fill="white"/>
<path d="M269.521 225.954H246.191L239 219.738H259.454L269.521 225.954Z" fill="#2A2A35"/>
<path d="M119.982 234.204H92.8301L106.192 225.953H129.522L119.982 234.204Z" fill="white"/>
<path d="M147.129 234.204H119.982L129.522 225.953H152.857L147.129 234.204Z" fill="#2A2A35"/>
<path d="M174.279 234.204H147.127L152.855 225.953H176.19L174.279 234.204Z" fill="white"/>
<path d="M201.433 234.204H174.281L176.192 225.953H199.522L201.433 234.204Z" fill="#2A2A35"/>
<path d="M228.584 234.204H201.432L199.521 225.953H222.856L228.584 234.204Z" fill="white"/>
<path d="M255.734 234.204H228.587L222.859 225.953H246.194L255.734 234.204Z" fill="#2A2A35"/>
<path d="M282.883 234.204H255.731L246.191 225.953H269.521L282.883 234.204Z" fill="white"/>
<path d="M106.704 245.684H74.2422L92.8296 234.203H119.982L106.704 245.684Z" fill="#2A2A35"/>
<path d="M139.165 245.684H106.703L119.981 234.203H147.128L139.165 245.684Z" fill="white"/>
<path d="M171.63 245.684H139.168L147.13 234.203H174.282L171.63 245.684Z" fill="#2A2A35"/>
<path d="M204.084 245.684H171.627L174.279 234.203H201.431L204.084 245.684Z" fill="white"/>
<path d="M236.546 245.684H204.084L201.432 234.203H228.584L236.546 245.684Z" fill="#2A2A35"/>
<path d="M269.01 245.684H236.548L228.586 234.203H255.733L269.01 245.684Z" fill="white"/>
<path d="M301.472 245.684H269.01L255.732 234.203H282.884L301.472 245.684Z" fill="#2A2A35"/>
<path d="M86.9759 262.75H46.6211L74.2459 245.686H106.708L86.9759 262.75Z" fill="white"/>
<path d="M127.329 262.75H86.9746L106.707 245.686H139.169L127.329 262.75Z" fill="#2A2A35"/>
<path d="M167.687 262.75H127.332L139.171 245.686H171.633L167.687 262.75Z" fill="white"/>
<path d="M208.035 262.75H167.686L171.632 245.686H204.089L208.035 262.75Z" fill="#2A2A35"/>
<path d="M248.391 262.75H208.036L204.09 245.686H236.552L248.391 262.75Z" fill="white"/>
<path d="M288.745 262.75H248.39L236.551 245.686H269.013L288.745 262.75Z" fill="#2A2A35"/>
<path d="M329.098 262.75H288.744L269.012 245.686H301.474L329.098 262.75Z" fill="white"/>
<path d="M54.557 290.776H1.23828L46.6194 262.748H86.9742L54.557 290.776Z" fill="#2A2A35"/>
<path d="M107.882 290.776H54.5586L86.9758 262.748H127.331L107.882 290.776Z" fill="white"/>
<path d="M161.198 290.776H107.879L127.327 262.748H167.682L161.198 290.776Z" fill="#2A2A35"/>
<path d="M214.52 290.776H161.201L167.686 262.748H208.035L214.52 290.776Z" fill="white"/>
<path d="M267.838 290.776H214.52L208.035 262.748H248.39L267.838 290.776Z" fill="#2A2A35"/>
<path d="M321.161 290.776H267.837L248.389 262.748H288.743L321.161 290.776Z" fill="white"/>
<path d="M374.48 290.776H321.161L288.744 262.748H329.099L374.48 290.776Z" fill="#2A2A35"/>
</g>
<g clip-path="url(#clip0_1_18484)">
<path d="M163.133 159.837C163.133 159.837 182.363 144.708 207.863 159.528C207.863 159.528 221.997 153.59 229.618 164.107C229.618 164.107 251.527 149.759 273.412 165.937C273.412 165.937 283.108 153.875 300.572 159.471C300.572 159.471 308.331 136.095 336.607 139.641C336.607 139.641 341.387 110.027 374.474 110.027V290.346L163.133 159.837Z" fill="white"/>
<path d="M217.004 193.101C217.004 193.101 231.333 181.828 250.336 192.873C250.336 192.873 260.871 188.448 266.546 196.289C266.546 196.289 282.87 185.593 299.178 197.655C299.178 197.655 306.408 188.668 319.418 192.84C319.418 192.84 325.199 175.418 346.261 178.07C346.261 178.07 349.827 156.004 374.472 156.004V290.352L217.004 193.101Z" fill="url(#paint0_linear_1_18484)"/>
<path d="M268.803 225.092C268.803 225.092 278.418 217.528 291.168 224.937C291.168 224.937 298.235 221.969 302.045 227.231C302.045 227.231 313.004 220.057 323.938 228.15C323.938 228.15 328.791 222.115 337.518 224.921C337.518 224.921 341.402 213.233 355.536 215.006C355.536 215.006 357.93 200.195 374.473 200.195V290.355L268.803 225.092Z" fill="url(#paint1_linear_1_18484)"/>
</g>
<g clip-path="url(#clip1_1_18484)">
<path d="M212.574 160.321C212.574 160.321 193.344 145.193 167.844 160.012C167.844 160.012 153.71 154.075 146.089 164.591C146.089 164.591 124.18 150.244 102.295 166.421C102.295 166.421 92.5985 154.359 75.1347 159.955C75.1347 159.955 67.3756 136.579 39.0996 140.126C39.0996 140.126 34.3205 110.512 1.23271 110.512V290.831L212.574 160.321Z" fill="white"/>
<path d="M158.701 193.585C158.701 193.585 144.372 182.312 125.369 193.357C125.369 193.357 114.834 188.933 109.159 196.773C109.159 196.773 92.8351 186.078 76.5273 198.14C76.5273 198.14 69.2975 189.152 56.2871 193.325C56.2871 193.325 50.5065 175.903 29.444 178.554C29.444 178.554 25.878 156.488 1.23312 156.488V290.837L158.701 193.585Z" fill="url(#paint2_linear_1_18484)"/>
<path d="M106.902 225.574C106.902 225.574 97.287 218.01 84.5372 225.42C84.5372 225.42 77.4702 222.451 73.6599 227.713C73.6599 227.713 62.7012 220.54 51.7669 228.632C51.7669 228.632 46.9145 222.597 38.1866 225.403C38.1866 225.403 34.303 213.716 20.1691 215.489C20.1691 215.489 17.7755 200.678 1.23159 200.678V290.837L106.902 225.574Z" fill="url(#paint3_linear_1_18484)"/>
</g>
<defs>
<linearGradient id="paint0_linear_1_18484" x1="217.004" y1="223.175" x2="374.473" y2="223.175" gradientUnits="userSpaceOnUse">
<stop stop-color="white"/>
<stop offset="1" stop-color="#A8E9FD"/>
</linearGradient>
<linearGradient id="paint1_linear_1_18484" x1="317.64" y1="204.37" x2="358.317" y2="288.713" gradientUnits="userSpaceOnUse">
<stop stop-color="white"/>
<stop offset="1" stop-color="#A8E9FD"/>
</linearGradient>
<linearGradient id="paint2_linear_1_18484" x1="158.701" y1="223.659" x2="1.23223" y2="223.659" gradientUnits="userSpaceOnUse">
<stop stop-color="white"/>
<stop offset="1" stop-color="#A8E9FD"/>
</linearGradient>
<linearGradient id="paint3_linear_1_18484" x1="58.0649" y1="204.852" x2="17.3884" y2="289.195" gradientUnits="userSpaceOnUse">
<stop stop-color="white"/>
<stop offset="1" stop-color="#A8E9FD"/>
</linearGradient>
<clipPath id="clip0_1_18484">
<rect width="211.342" height="180.319" fill="white" transform="translate(163.133 110.035)"/>
</clipPath>
<clipPath id="clip1_1_18484">
<rect width="211.342" height="180.319" fill="white" transform="matrix(-1 0 0 1 212.574 110.52)"/>
</clipPath>
</defs>
</svg>
